<svg xmlns="http://www.w3.org/2000/svg" width="110" height="110" viewBox="0 0 110 110" fill="none">
	<path d="M53.2582 79.4521C56.5256 77.0286 57.687 73.7535 57.2844 69.8512C56.8818 65.949 54.8067 62.6893 52.0581 61.6208C52.2749 67.3349 52.7395 72.9947 52.7859 78.6546C52.7772 78.8193 52.8174 78.9829 52.9015 79.1248C52.9855 79.2667 53.1096 79.3805 53.2582 79.4521Z" fill="#5DCDF1" class="ali-icon-highlight" />
	<path d="M45.5546 59.0968C45.3301 62.821 45.3688 66.4523 45.3998 70.0836C45.4307 73.7148 45.1985 77.2997 45.4927 80.9232C47.289 80.9774 48.9459 81.3336 50.6028 80.4819C50.5176 75.2324 49.6272 61.8996 49.2324 60.1188C48.0942 59.7394 46.9715 59.0736 45.5546 59.0968Z" fill="#5DCDF1" class="ali-icon-highlight" />
	<path d="M42.6818 46.7781C39.5847 48.9073 39.244 52.5928 42.8134 54.5749C42.9877 51.9768 42.9437 49.3688 42.6818 46.7781Z" fill="#5DCDF1" class="ali-icon-highlight" />
	<path d="M49.0227 57.1455C49.2525 56.6636 49.3178 56.1196 49.2086 55.597C49.046 52.4535 48.8524 49.31 48.6588 46.1665C48.6759 45.9491 48.638 45.731 48.5487 45.5321C48.4594 45.3332 48.3216 45.16 48.1478 45.0283C47.2025 44.8604 46.2288 44.9706 45.345 45.3458C45.2753 48.8996 45.345 52.4457 45.585 56.0383C46.6594 56.6008 47.8221 56.9752 49.0227 57.1455Z" fill="#5DCDF1" class="ali-icon-highlight" />
	<path d="M9.80691 88.5264C14.3981 91.9226 19.6083 94.3897 25.145 95.7889C30.3881 97.1425 35.7996 97.7293 41.2109 97.531C46.3133 97.5697 50.5021 97.531 54.6831 96.7567C59.686 95.9128 64.6188 94.6964 69.4405 93.1177C76.1534 90.7949 81.0544 86.1494 85.3593 80.7915C90.2062 72.8553 91.1043 64.5939 87.3182 56.0151C84.7554 50.1772 80.3499 45.8491 75.5107 41.9313C71.0257 38.3979 66.0354 35.5583 60.7068 33.5073C60.0136 33.2446 59.3451 32.9207 58.7093 32.5395C58.4084 32.3629 58.1453 32.1287 57.935 31.8504C57.9154 32.101 57.8013 32.3347 57.6159 32.5043C57.4304 32.6739 57.1875 32.7668 56.9362 32.7641C56.2615 32.8555 55.5803 32.8891 54.8999 32.8647C49.031 32.586 43.1621 32.5937 37.2854 32.7486C36.3099 32.7486 35.3266 33.0583 34.3433 32.7486C34.1729 32.6944 33.9716 32.7486 33.7935 32.6944C33.4849 32.6501 33.2022 32.4971 32.9963 32.2629C32.7905 32.0287 32.6751 31.7286 32.6708 31.4168C32.7089 31.106 32.8528 30.8178 33.0785 30.6006C33.3041 30.3835 33.5976 30.2506 33.9097 30.2245C34.8775 30.1161 35.8608 30.1006 37.0067 30.0309C36.4105 28.4824 35.8608 27.0345 35.3266 25.6021C35.1713 25.2019 35.047 24.7903 34.9549 24.3711C34.9602 24.2818 34.9868 24.1951 35.0327 24.1183C35.0785 24.0414 35.1421 23.9768 35.2182 23.9297C35.3848 23.8638 35.5703 23.8638 35.7369 23.9297C35.9064 23.9994 36.0591 24.1046 36.1846 24.2381C36.3101 24.3717 36.4056 24.5305 36.4647 24.704C36.7899 25.4783 37.1151 26.3145 37.3938 27.1274C37.6781 28.0631 38.0488 28.9703 38.501 29.8373C38.7427 29.9699 39.0177 30.0294 39.2925 30.0088C39.5674 29.9882 39.8303 29.8883 40.0496 29.7212C39.9974 28.5147 39.7998 27.3188 39.4611 26.1596C39.2676 25.0447 38.6327 23.953 39.1979 22.8148C39.3005 22.7624 39.4136 22.7336 39.5288 22.7305C39.644 22.7273 39.7585 22.75 39.8638 22.7967C39.9692 22.8434 40.0628 22.9131 40.1378 23.0006C40.2128 23.0882 40.2673 23.1913 40.2973 23.3026C40.5103 23.8886 40.671 24.4923 40.7774 25.1066C41.0406 26.3764 41.2651 27.6617 41.4974 28.9315C41.5584 29.3412 41.7483 29.7208 42.0394 30.0154C43.9828 30.0154 46.0114 30.1548 48.0012 30.0154C48.1978 29.8411 48.3542 29.6262 48.4598 29.3856C48.5654 29.145 48.6176 28.8844 48.6129 28.6218C48.9071 26.9184 49.2013 25.2073 49.5343 23.5116C49.6736 22.8225 49.7433 22.8148 50.835 22.7838C51.2918 25.215 49.7743 27.4294 49.8517 29.8141C50.5563 30.1703 51.0596 30.1393 51.4777 29.4657C51.8671 28.8394 52.2937 28.237 52.7552 27.6617C53.181 27.1429 53.5294 26.5235 54.3037 26.2835C54.5128 27.0577 53.723 27.4449 53.5294 28.0488C53.3359 28.6527 52.8016 29.2102 52.8946 29.9457C53.5445 30.1517 54.2275 30.2331 54.9076 30.1858C55.704 30.1953 56.4916 30.3529 57.2304 30.6503C57.3172 30.7008 57.4 30.7577 57.4782 30.8207C57.4318 30.4974 57.4563 30.168 57.5499 29.8552C57.6435 29.5423 57.8039 29.2536 58.0202 29.0089C58.997 27.8955 60.0307 26.8333 61.1172 25.8267C62.5865 24.4941 63.861 22.9616 64.9034 21.274C65.4937 20.3367 65.8643 19.2779 65.9873 18.177C66.0442 17.7143 66.0069 17.2448 65.8779 16.7969C65.7488 16.3489 65.5306 15.9316 65.2363 15.5701C64.942 15.2085 64.5777 14.9102 64.1652 14.6929C63.7528 14.4756 63.3007 14.3439 62.8361 14.3057C61.6028 14.159 60.3526 14.259 59.1583 14.5999C58.0898 14.9018 57.0291 15.2657 55.9374 15.4748C53.6998 15.8929 51.5009 15.9316 49.5575 14.4141C49.1579 14.1238 48.7267 13.8796 48.2722 13.6863C44.7725 12.0448 41.3735 11.7196 38.2068 14.5147C38.1216 14.5999 38.0132 14.6696 37.9203 14.747C37.4444 15.1487 36.8837 15.4375 36.2803 15.5917C35.6769 15.7459 35.0465 15.7615 34.4362 15.6374C33.4683 15.4748 32.516 15.1651 31.5559 14.9251C30.1158 14.5612 28.6834 14.1508 27.2355 13.8488C25.5206 13.525 23.7476 13.7358 22.1564 14.4528C21.505 14.6777 20.952 15.1218 20.5919 15.7093C20.2317 16.2968 20.0869 16.9912 20.182 17.6737C20.2455 18.9235 20.7283 20.1155 21.5525 21.0572C22.3621 21.9899 23.2592 22.8428 24.2314 23.6045C25.8961 24.8821 27.6614 26.0357 29.3725 27.2668C30.1468 27.8398 30.9675 28.4359 31.6953 29.0863C32.0233 29.3766 32.2387 29.7731 32.3038 30.2062C32.3689 30.6394 32.2796 31.0816 32.0514 31.4556C31.4119 32.6698 30.4707 33.699 29.3183 34.4442C27.7698 35.474 26.2213 36.4495 24.5643 37.3245C21.9473 38.7336 19.2297 39.9492 16.6359 41.3971C6.83375 46.8943 1.55328 55.4112 0.244783 66.4522C-0.159471 69.1541 -0.062357 71.9074 0.53126 74.5742C1.88297 80.1724 5.16794 85.1136 9.80691 88.5264ZM32.2605 71.299C32.3096 70.7444 32.4537 70.2022 32.6863 69.6963C32.7471 69.5178 32.865 69.3642 33.0217 69.2593C33.1784 69.1543 33.3653 69.1039 33.5535 69.1156C33.7712 69.1405 33.9733 69.2408 34.1247 69.3993C34.276 69.5577 34.3671 69.7642 34.382 69.9828C34.4218 70.1658 34.4348 70.3535 34.4207 70.5403C34.1342 73.8309 35.613 76.2466 38.1449 78.159C39.4504 79.17 40.9755 79.8597 42.5969 80.1721C42.7864 77.7303 42.8485 75.2803 42.7827 72.8321C42.8292 70.308 42.7827 67.7839 42.7827 65.2598V57.8114C42.3868 57.3511 41.8881 56.9904 41.3271 56.7584C40.0643 56.0914 39.0251 55.0684 38.3384 53.8162C37.7424 52.8302 37.4397 51.6948 37.4657 50.5429C37.4918 49.3911 37.8455 48.2705 38.4855 47.3124C39.2464 46.0939 40.2443 45.0408 41.42 44.2154C41.8691 43.8824 42.3259 43.565 42.7053 43.294C42.8214 42.2255 42.9221 41.25 43.0305 40.2666C43.1001 39.8176 43.3866 39.4614 43.8744 39.4614C44.0939 39.4574 44.3073 39.534 44.4743 39.6767C44.6412 39.8193 44.75 40.0182 44.7803 40.2357C44.9274 40.948 45.0358 41.6758 45.1674 42.4423H48.1483C48.5355 42.1636 48.4038 41.7842 48.3884 41.4203C48.3291 40.6812 48.3085 39.9394 48.3264 39.1982C48.3264 39.0714 48.3515 38.9459 48.4002 38.829C48.449 38.712 48.5204 38.6058 48.6103 38.5165C48.7003 38.4273 48.8071 38.3567 48.9244 38.3089C49.0418 38.2611 49.1675 38.2371 49.2942 38.2381C49.8285 38.1839 50.0685 38.54 50.2311 38.9659C50.5047 39.7146 50.6816 40.4952 50.7576 41.2887C50.8428 41.8384 50.866 42.3881 50.9047 42.8372C51.2376 43.4101 51.7564 43.5108 52.1822 43.7431C53.6806 44.5187 54.8529 45.8036 55.4883 47.3666C55.8832 48.3499 55.8445 48.5203 55.1399 49.6042C53.3281 49.2868 53.212 46.9485 51.3925 46.3988C50.9744 47.777 51.3925 49.0932 51.3925 50.394C51.3925 51.6947 51.4931 52.9878 51.5396 54.2653C51.5491 55.6774 51.676 57.0862 51.919 58.4773C56.8897 60.7226 59.4603 64.803 59.8939 70.1841C60.3429 75.7123 57.935 79.8314 53.0649 82.611C52.9027 83.3742 52.8661 84.1588 52.9565 84.9338C53.0093 85.4285 52.9291 85.9283 52.7242 86.3816C52.66 86.5303 52.5507 86.6551 52.4118 86.7385C52.2729 86.8218 52.1114 86.8595 51.95 86.8462C51.7928 86.8426 51.6411 86.7877 51.5181 86.6898C51.3951 86.592 51.3074 86.4566 51.2686 86.3042C51.1293 85.7675 51.0284 85.2216 50.9666 84.6705C50.991 84.2002 50.8664 83.7342 50.6105 83.3388C48.9768 83.3388 47.2812 83.7879 45.6862 83.3388C45.1055 83.9892 45.4539 84.5544 45.4229 85.0809C45.413 85.696 45.356 86.3095 45.2526 86.9159C45.2255 87.1986 45.0938 87.461 44.8832 87.6515C44.6726 87.842 44.3984 87.9469 44.1144 87.9457C43.5724 87.9457 43.1621 87.574 43.0305 86.8772C42.9681 86.4486 42.9293 86.017 42.9143 85.5842L42.6743 82.9362C41.8071 82.5645 40.9787 82.1619 40.1192 81.8445C37.4176 80.8624 35.1335 78.9853 33.6464 76.5253C32.6467 74.9722 32.1617 73.1435 32.2605 71.299Z" fill="#5DCDF1" class="ali-icon-highlight" />
	<path d="M34.3972 69.9827C34.3824 69.7641 34.2913 69.5576 34.14 69.3992C33.9886 69.2407 33.7865 69.1404 33.5688 69.1155C33.3805 69.1038 33.1937 69.1542 33.037 69.2592C32.8803 69.3641 32.7624 69.5177 32.7016 69.6962C32.4636 70.2012 32.3143 70.7433 32.2603 71.2989C32.1699 73.1658 32.6771 75.0128 33.7081 76.5717C35.1952 79.0317 37.4794 80.9088 40.181 81.8908C41.0404 82.2005 41.8689 82.6109 42.736 82.9825L42.9761 85.6305C42.9936 86.0635 43.0349 86.4951 43.0999 86.9235C43.2316 87.6204 43.6419 87.992 44.1839 87.992C44.4679 87.9933 44.7421 87.8884 44.9527 87.6979C45.1633 87.5073 45.295 87.2449 45.3221 86.9622C45.4273 86.3611 45.4869 85.7529 45.5001 85.1427C45.5001 84.6162 45.1827 84.051 45.7634 83.4007C47.3584 83.8188 49.054 83.4007 50.6877 83.4007C50.9436 83.796 51.0682 84.2621 51.0439 84.7324C51.1056 85.2834 51.2065 85.8294 51.3458 86.3661C51.3847 86.5184 51.4723 86.6538 51.5953 86.7517C51.7183 86.8496 51.87 86.9045 52.0272 86.9081C52.1886 86.9213 52.3501 86.8837 52.489 86.8003C52.6279 86.717 52.7372 86.5922 52.8014 86.4435C53.0063 85.9901 53.0865 85.4903 53.0337 84.9956C52.9433 84.2206 52.98 83.4361 53.1421 82.6728C58.0122 79.8932 60.4202 75.7742 59.9711 70.246C59.5375 64.8648 56.967 60.7845 51.9962 58.5391C51.7511 57.1353 51.6242 55.7134 51.6168 54.2884C51.5704 52.9877 51.4697 51.6946 51.4697 50.4171C51.4697 49.1396 51.0206 47.8001 51.4697 46.4219C53.2892 46.9717 53.4054 49.3099 55.2171 49.6274C55.9217 48.5434 55.9914 48.3731 55.5655 47.3898C54.9197 45.8316 53.7392 44.555 52.2362 43.7894C51.8104 43.5572 51.2916 43.4565 50.9587 42.8836C50.9587 42.4345 50.8967 41.8848 50.8116 41.335C50.7356 40.5415 50.5587 39.761 50.2851 39.0122C50.107 38.5864 49.8825 38.238 49.3482 38.2844C49.0949 38.2905 48.8543 38.3965 48.6788 38.5792C48.5034 38.762 48.4072 39.0067 48.4114 39.26C48.3934 40.0013 48.4141 40.743 48.4733 41.4821C48.4733 41.846 48.6204 42.2564 48.2333 42.5042H45.1904C45.0588 41.7299 44.9504 41.0098 44.8033 40.2975C44.7874 40.0648 44.6815 39.8473 44.5081 39.6913C44.3347 39.5352 44.1073 39.4527 43.8742 39.4613C43.3632 39.4613 43.0999 39.8097 43.0535 40.2975C42.9451 41.2808 42.8444 42.2564 42.7283 43.3249C42.3489 43.5959 41.8921 43.9133 41.443 44.2463C40.2673 45.0716 39.2694 46.1248 38.5086 47.3433C37.8686 48.3013 37.5148 49.4219 37.4888 50.5738C37.4627 51.7257 37.7654 52.8611 38.3615 53.8471C39.0481 55.0993 40.0873 56.1223 41.3501 56.7893C41.9112 57.0213 42.4098 57.382 42.8057 57.8423V65.2907C42.8057 67.8148 42.8057 70.3389 42.8057 72.863C42.8715 75.3112 42.8095 77.7612 42.6199 80.203C40.9985 79.8905 39.4734 79.2009 38.1679 78.1899C35.6361 76.2774 34.1572 73.8618 34.4437 70.5711C34.4584 70.3738 34.4427 70.1753 34.3972 69.9827ZM57.2844 69.8511C57.687 73.7224 56.5101 77.0285 53.2582 79.4519C53.1134 79.382 52.9918 79.2717 52.908 79.1344C52.8242 78.997 52.7819 78.8385 52.7859 78.6777C52.7395 73.0023 52.2749 67.3425 52.0581 61.6439C54.8068 62.6892 56.8818 65.9411 57.2844 69.8511ZM50.6025 80.4972C48.9456 81.3489 47.2887 80.9927 45.4924 80.9385C45.1982 77.2762 45.4227 73.6604 45.3995 70.0988C45.3763 66.5372 45.3298 62.8363 45.5543 59.1121C46.979 59.1121 48.0939 59.7547 49.2321 60.1728C49.627 61.9149 50.5174 75.2709 50.6025 80.4972ZM45.3453 45.338C46.2291 44.9629 47.2028 44.8526 48.1481 45.0205C48.3219 45.1522 48.4597 45.3255 48.549 45.5243C48.6383 45.7232 48.6762 45.9413 48.6591 46.1587C48.8527 49.3022 49.0463 52.4457 49.2089 55.5892C49.3181 56.1118 49.2528 56.6558 49.023 57.1377C47.8219 56.965 46.6592 56.5879 45.5853 56.0228C45.4227 52.4379 45.2756 48.8918 45.3453 45.338ZM42.8135 54.5749C39.2286 52.6238 39.6158 48.9073 42.6818 46.7781C42.9438 49.3688 42.9878 51.9769 42.8135 54.5749Z" fill="#1B1624"/>
	<path d="M32.6782 31.44C32.6827 31.7529 32.7992 32.0539 33.0066 32.2883C33.214 32.5226 33.4986 32.6749 33.8086 32.7175C33.9867 32.764 34.188 32.7175 34.3584 32.7717C35.3417 33.0969 36.325 32.7717 37.3006 32.7717C43.1772 32.6168 49.0461 32.6091 54.915 32.8878C55.5954 32.9123 56.2766 32.8786 56.9513 32.7872C57.2026 32.7899 57.4456 32.6971 57.631 32.5275C57.8164 32.3578 57.9305 32.1241 57.9501 31.8736C57.9691 31.6831 57.9385 31.491 57.8611 31.316C57.7838 31.1409 57.6624 30.9889 57.5088 30.8748C57.4306 30.8118 57.3478 30.7549 57.261 30.7044C56.5222 30.407 55.7346 30.2494 54.9382 30.2399C54.2581 30.2872 53.5751 30.2058 52.9252 29.9998C52.8322 29.2256 53.3897 28.7455 53.5601 28.1029C53.7304 27.4603 54.5047 27.1428 54.3343 26.3376C53.5601 26.5776 53.2503 27.197 52.7858 27.7158C52.3243 28.2911 51.8977 28.8935 51.5083 29.5198C51.0902 30.1934 50.5869 30.2244 49.8823 29.8682C49.8049 27.468 51.3224 25.2691 50.8656 22.8379C49.7739 22.8379 49.7042 22.8766 49.5649 23.5657C49.2319 25.2614 48.9377 26.9725 48.6435 28.6759C48.6435 28.9296 48.5905 29.1805 48.4879 29.4125C48.3852 29.6445 48.2351 29.8525 48.0473 30.0231C46.0575 30.1779 44.0289 30.0231 42.0855 30.0231C41.7944 29.7284 41.6045 29.3488 41.5435 28.9391C41.3112 27.6693 41.0867 26.384 40.8234 25.1143C40.7103 24.5099 40.5445 23.9166 40.3279 23.3412C40.2988 23.2292 40.2449 23.1252 40.1703 23.0368C40.0957 22.9484 40.0022 22.8779 39.8968 22.8303C39.7913 22.7828 39.6765 22.7595 39.5609 22.7622C39.4452 22.7648 39.3316 22.7934 39.2285 22.8457C38.6633 23.9838 39.2982 25.0755 39.4917 26.1905C39.8304 27.3497 40.028 28.5455 40.0802 29.7521C39.8609 29.9192 39.598 30.0191 39.3231 30.0397C39.0483 30.0603 38.7733 30.0007 38.5316 29.8682C38.0794 29.0012 37.7087 28.094 37.4244 27.1583C37.1457 26.384 36.8205 25.5401 36.4953 24.7349C36.4362 24.5614 36.3407 24.4025 36.2152 24.269C36.0897 24.1355 35.937 24.0303 35.7675 23.9606C35.6009 23.8946 35.4154 23.8946 35.2488 23.9606C35.1727 24.0077 35.1091 24.0723 35.0633 24.1491C35.0174 24.2259 34.9908 24.3126 34.9855 24.4019C35.078 24.8186 35.2022 25.2276 35.3572 25.6253C35.8914 27.0576 36.4411 28.49 37.0373 30.054C35.8682 30.1237 34.8849 30.1392 33.9403 30.2476C33.6241 30.2686 33.3251 30.3992 33.0948 30.6168C32.8644 30.8344 32.7171 31.1255 32.6782 31.44Z" fill="#1B1624"/>
	<path d="M72.7387 23.651C72.955 23.5313 73.1644 23.3994 73.3658 23.2561C73.8923 22.9309 74.4266 22.6212 74.9144 22.2805C76.3467 21.3359 77.7791 20.3681 79.2038 19.408C79.4629 19.2677 79.679 19.0596 79.8291 18.8059C79.9791 18.5523 80.0573 18.2626 80.0555 17.9679C80.0125 17.7418 79.901 17.5344 79.7362 17.3737C79.5714 17.2131 79.3612 17.107 79.1341 17.0698C78.7668 17.0007 78.387 17.0755 78.0733 17.2788C76.076 18.3751 74.1495 19.5957 72.3051 20.9333C71.9684 21.2005 71.6526 21.493 71.3605 21.8082C71.1459 21.9879 70.9985 22.235 70.9423 22.5091C70.886 22.7833 70.9243 23.0684 71.0508 23.3181C71.2518 23.5579 71.5289 23.7218 71.836 23.7824C72.1431 23.8429 72.4616 23.7966 72.7387 23.651Z" fill="#1B1624"/>
	<path d="M80.0554 32.1213C78.5467 31.6289 76.9891 31.3018 75.4098 31.1458C75.1388 31.1458 74.953 31.1458 74.7671 31.1458C74.0626 31.2077 73.6212 31.5406 73.5283 32.0516C73.4916 32.3594 73.5646 32.6703 73.7346 32.9295C73.9045 33.1887 74.1605 33.3796 74.4574 33.4685C74.8608 33.6209 75.2784 33.7324 75.704 33.8015C77.4058 34.1009 79.0888 34.499 80.7444 34.9938C81.2173 35.1384 81.7017 35.242 82.1923 35.3035C82.5003 35.3651 82.8202 35.3019 83.0816 35.1276C83.3429 34.9534 83.5244 34.6824 83.586 34.3744C83.6476 34.0664 83.5843 33.7465 83.4101 33.4852C83.2358 33.2238 82.9649 33.0424 82.6569 32.9808C81.8056 32.6481 80.9372 32.3612 80.0554 32.1213Z" fill="#1B1624"/>
	<path d="M73.6215 25.9893C73.2807 26.0244 72.9661 26.1881 72.7417 26.447C72.5174 26.7059 72.4 27.0406 72.4137 27.3829C72.5401 27.6935 72.7535 27.9609 73.0281 28.1532C73.3028 28.3455 73.6271 28.4544 73.9622 28.4669C74.147 28.459 74.3309 28.4357 74.5119 28.3972L76.7882 28.1882C78.4215 28.1669 80.0514 28.0324 81.6661 27.7856C81.8209 27.7907 81.9752 27.7651 82.12 27.7101C82.2649 27.6551 82.3973 27.5719 82.5097 27.4652C82.6221 27.3586 82.7121 27.2307 82.7747 27.089C82.8372 26.9473 82.8709 26.7945 82.8739 26.6397C82.9126 26.028 82.4791 25.5479 81.6971 25.5092C78.9958 25.3749 76.2879 25.5359 73.6215 25.9893Z" fill="#1B1624"/>
  </svg>