<svg xmlns="http://www.w3.org/2000/svg" width="110" height="110" viewBox="0 0 110 110" fill="none">
	<g clip-path="url(#clip0_6458_7402)">
	  <path d="M47.0037 100.32C46.3752 99.6722 45.7938 98.9805 45.2637 98.25C45.5537 98.7 45.8337 99.14 46.1537 99.57C46.3703 99.8867 46.6624 100.144 47.0037 100.32Z" fill="#FDD46B" class="ali-icon-highlight" />
	  <path d="M40.5735 72.42V72.31L40.6535 72.01C40.5203 72.0941 40.3933 72.1877 40.2735 72.29C40.0847 72.4604 39.8766 72.608 39.6535 72.73C39.3835 74.18 39.1135 75.63 38.9035 77.08C38.8197 77.4802 38.8256 77.894 38.9207 78.2916C39.0158 78.6893 39.1977 79.061 39.4535 79.38C39.4043 78.9715 39.4043 78.5585 39.4535 78.15C39.6514 76.2099 40.0263 74.2919 40.5735 72.42Z" fill="#FDD46B" class="ali-icon-highlight" />
	  <path d="M42.5437 90.15C42.7267 89.9557 42.924 89.7752 43.1337 89.61C43.4237 89.38 43.7337 89.15 44.0737 88.91L44.3437 88.71C44.2637 88.09 44.1737 87.48 44.0837 86.88C43.8049 85.1911 43.6147 83.4888 43.5137 81.78C43.1341 81.5283 42.7098 81.3518 42.2637 81.26C43.104 82.4113 43.5842 83.7859 43.6437 85.21C43.8737 87.04 43.9037 88.65 42.5737 90.13L42.5437 90.15Z" fill="#FDD46B" class="ali-icon-highlight" />
	  <path d="M57.2637 103.43C57.4926 103.757 57.6494 104.128 57.7237 104.52C57.7283 104.5 57.7283 104.48 57.7237 104.46C57.8737 104 57.8337 103.73 57.2637 103.43Z" fill="#FDD46B" class="ali-icon-highlight" />
	  <path d="M94.5934 67.7201C94.7856 67.3661 94.8929 66.9722 94.9067 66.5696C94.9206 66.1669 94.8408 65.7666 94.6734 65.4001C93.772 63.1642 92.409 61.1435 90.6734 59.4701C90.3378 59.1208 89.8965 58.8914 89.4177 58.8173C88.9389 58.7432 88.449 58.8285 88.0234 59.0601C87.4701 59.3818 86.8992 59.6722 86.3134 59.9301C85.8778 60.1091 85.3891 60.1091 84.9534 59.9301C82.5434 58.2201 79.4334 57.1401 79.0834 53.5101C79.053 53.107 78.9216 52.7181 78.7014 52.3791C78.4812 52.0401 78.1793 51.7619 77.8234 51.5701C75.4368 50.2579 72.8055 49.4512 70.0934 49.2001C69.7264 49.1717 69.3582 49.2371 69.0234 49.3901H69.1234C69.4227 49.4843 69.6786 49.6819 69.8454 49.9476C70.0121 50.2133 70.0788 50.5297 70.0334 50.8401V51.1201C69.9434 52.6001 69.8434 54.2901 68.1334 55.4301L67.7534 55.6901L67.4634 55.3301L67.2834 55.1301C67.092 54.9592 66.9532 54.7372 66.8834 54.4901C66.7664 53.8705 66.7429 53.2368 66.8134 52.6101C66.3735 53.1379 65.7604 53.4923 65.0834 53.6101C64.3034 53.7901 63.5034 53.9201 62.7534 54.1701C61.932 54.5062 61.0359 54.6176 60.1572 54.4928C59.2785 54.368 58.4488 54.0116 57.7534 53.4601C57.1507 53.0539 56.4403 52.8368 55.7134 52.8368C54.9865 52.8368 54.2762 53.0539 53.6734 53.4601L49.4634 55.6901C49.0834 55.8801 48.4634 55.3101 48.5834 54.8301C48.6325 54.3677 48.8091 53.9281 49.0934 53.5601C49.6071 53.1911 50.188 52.9261 50.8034 52.7801C51.519 52.6218 52.1566 52.2183 52.6058 51.6393C53.0551 51.0604 53.2877 50.3425 53.2634 49.6101C53.3234 48.3301 53.3434 47.0601 53.4634 45.7901C53.5126 45.6501 53.596 45.5247 53.706 45.4251C53.8161 45.3256 53.9492 45.2551 54.0934 45.2201C54.3234 45.2201 54.7834 45.4501 54.8134 45.6301C54.9049 46.2565 55.1045 46.8622 55.4034 47.4201C55.5034 46.9501 55.6234 46.4901 55.7534 46.0201L55.8734 45.5601C54.9832 44.8869 54.0325 44.2977 53.0334 43.8001C52.5534 43.5501 52.0334 43.2901 51.6034 43.0101C51.0692 43.2116 50.5749 43.5061 50.1434 43.8801C49.8834 44.0701 49.6134 44.2701 49.3334 44.4501C48.3334 45.1001 47.4234 45.3001 46.3334 44.2401C44.5676 42.4556 42.98 40.503 41.5934 38.4101C41.3287 38.0073 41.2183 37.5225 41.2826 37.0447C41.3469 36.567 41.5816 36.1286 41.9434 35.8101C42.1634 35.5901 42.4134 35.3901 42.6534 35.1801C43.1013 34.842 43.5015 34.4451 43.8434 34.0001L42.5534 29.7901C42.3679 29.687 42.1739 29.6 41.9734 29.5301C41.9734 29.5301 41.9034 29.7401 41.8534 29.8501C41.7434 29.8501 41.5934 29.7601 41.5434 29.6701C41.4934 29.5801 41.5434 29.5001 41.6334 29.4001C41.3048 29.3069 40.9709 29.2334 40.6334 29.1801C40.2669 29.1412 39.903 29.0811 39.5434 29.0001C38.0934 28.5901 37.1834 27.9301 37.4634 26.0001C37.6834 24.5301 38.0034 23.0501 38.3134 21.6201L38.6734 19.8901C38.6734 19.8101 38.7334 19.7201 38.7534 19.6401C38.5298 19.9769 38.3642 20.3487 38.2634 20.7401C37.9578 21.9769 37.7373 23.2332 37.6034 24.5001C37.5544 25.0575 37.3957 25.5998 37.1366 26.0957C36.8775 26.5917 36.523 27.0315 36.0934 27.3901C35.4734 27.8901 34.9534 28.5101 34.3834 29.0601C33.9615 29.4782 33.4463 29.79 32.8802 29.97C32.3142 30.1499 31.7135 30.1929 31.1276 30.0952C30.5417 29.9976 29.9874 29.7621 29.5103 29.4083C29.0332 29.0545 28.647 28.5924 28.3834 28.0601C27.3834 25.9501 25.8634 25.3201 23.8334 25.2301C23.0378 25.1933 22.2404 25.2369 21.4534 25.3601C19.0834 25.7301 17.9434 26.1801 17.2834 27.4901C17.5012 27.3752 17.75 27.3331 17.9934 27.3701C18.2079 27.4018 18.4094 27.4924 18.5754 27.6319C18.7414 27.7714 18.8653 27.9543 18.9334 28.1601C19.0034 28.5101 19.1134 28.8601 19.2134 29.2101C19.4787 29.9508 19.6074 30.7335 19.5934 31.5201C19.5839 31.7811 19.4915 32.0322 19.3297 32.2372C19.1679 32.4421 18.945 32.5903 18.6934 32.6601C18.5724 32.6908 18.4483 32.7076 18.3234 32.7101C18.1356 32.7087 17.95 32.669 17.778 32.5933C17.6061 32.5177 17.4514 32.4077 17.3234 32.2701C16.8933 31.7757 16.6369 31.154 16.5934 30.5001C16.5826 30.4157 16.5659 30.3322 16.5434 30.2501C16.5434 30.3401 16.5434 30.4301 16.5434 30.5301C16.4898 31.1639 16.2858 31.7757 15.9484 32.3148C15.6111 32.854 15.15 33.3049 14.6034 33.6301C13.9668 34.1216 13.2115 34.436 12.4142 34.5414C11.6169 34.6468 10.8059 34.5394 10.0634 34.2301C9.71461 34.024 9.31338 33.9237 8.90858 33.9415C8.50379 33.9592 8.11288 34.0943 7.78344 34.3301C5.7257 36.1053 4.06323 38.2924 2.90344 40.7501C2.83431 40.9142 2.80683 41.0929 2.82344 41.2701C2.93753 41.059 3.11752 40.891 3.33598 40.7917C3.55443 40.6924 3.79937 40.6673 4.03344 40.7201C5.16644 40.9532 6.25619 41.3614 7.26344 41.9301C7.63763 42.135 7.93651 42.4542 8.11642 42.841C8.29633 43.2278 8.34785 43.662 8.26344 44.0801C7.93344 46.0801 7.56344 48.0801 7.19344 50.0801L7.04344 50.8701C6.98052 51.1106 6.85473 51.3299 6.67899 51.5057C6.50325 51.6814 6.28388 51.8072 6.04344 51.8701H5.90344H5.74344C5.29312 51.7457 4.90057 51.4676 4.63388 51.084C4.3672 50.7004 4.24321 50.2356 4.28344 49.7701C4.28344 49.5601 4.28344 49.3501 4.28344 49.1401C4.01252 49.7256 3.62822 50.2515 3.15276 50.6875C2.6773 51.1235 2.12012 51.4609 1.51344 51.6801C1.42666 51.7266 1.34603 51.7837 1.27344 51.8501C1.45652 51.8715 1.63098 51.9398 1.7799 52.0485C1.92883 52.1571 2.04716 52.3023 2.12344 52.4701C2.36344 53.2001 2.54344 53.9401 2.72344 54.6601L2.82344 55.0301C2.94344 55.5401 3.06344 56.0301 3.17344 56.5601C3.41222 57.8594 3.78764 59.1298 4.29344 60.3501C4.75356 60.3668 5.21242 60.2921 5.64344 60.1301C5.86344 60.0568 6.08344 59.9968 6.30344 59.9501C6.93596 59.7467 7.62021 59.7748 8.23391 60.0294C8.84762 60.2841 9.35077 60.7486 9.65344 61.3401C10.1694 62.1709 10.7584 62.954 11.4134 63.6801L11.9334 64.3001C13.3434 66.0001 13.3834 66.5101 12.2634 68.4701C11.9734 68.9801 11.6834 69.4701 11.3734 70.0101L11.1234 70.4501L11.3234 70.6401C13.1134 72.3901 14.8134 74.0401 17.3234 74.7901L17.6734 74.2601C18.0334 73.7301 18.3534 73.2601 18.6734 72.7501C18.9853 72.188 19.4916 71.7589 20.0974 71.5435C20.7031 71.3281 21.3666 71.3411 21.9634 71.5801C23.4461 72.0779 24.9682 72.4493 26.5134 72.6901H26.7634C27.3514 72.7583 27.8943 73.0387 28.2901 73.4788C28.686 73.9188 28.9076 74.4883 28.9134 75.0801V75.6101C28.9028 76.1157 28.9912 76.6185 29.1734 77.0901C30.4925 77.275 31.8367 77.1413 33.0934 76.7001C34.2734 76.3501 35.5334 76.0201 36.8234 75.7001H36.9434C37.0457 75.4286 37.0966 75.1403 37.0934 74.8501C37.0934 74.3001 36.9934 73.7401 36.9534 73.1801C36.8572 73.1074 36.7699 73.0235 36.6934 72.9301C36.5339 72.7337 36.4332 72.496 36.4032 72.2447C36.3731 71.9934 36.4148 71.7387 36.5234 71.5101C36.6102 71.2888 36.7512 71.0928 36.9334 70.9401C37.2834 70.6601 37.6234 70.3701 37.9334 70.0801C39.1056 69.0083 40.4176 68.1 41.8334 67.3801L41.9634 67.3201H42.1034C42.6626 67.4119 43.203 67.5943 43.7034 67.8601C44.2211 68.1524 44.7997 68.3202 45.3934 68.3501C45.7996 67.9064 46.1367 67.4041 46.3934 66.8601C46.6606 66.2851 46.9964 65.7445 47.3934 65.2501C47.9634 64.5901 48.4934 63.8701 49.0034 63.1801L49.5734 62.4101C49.4415 62.0264 49.2144 61.6823 48.9134 61.4101C48.6641 61.1545 48.4428 60.8729 48.2534 60.5701C48.1834 60.4401 48.0934 60.3101 48.0134 60.1901C47.868 59.9727 47.7377 59.7455 47.6234 59.5101C47.5013 59.2626 47.4714 58.9795 47.5393 58.7119C47.6071 58.4443 47.7681 58.2097 47.9934 58.0501C48.2063 57.8754 48.4731 57.78 48.7484 57.78C49.0238 57.78 49.2906 57.8754 49.5034 58.0501C50.0077 58.47 50.4853 58.9208 50.9334 59.4001C53.4334 62.0301 53.2834 62.6801 51.3834 64.8301L51.0734 65.1901C50.0079 66.4373 49.0948 67.8069 48.3534 69.2701C47.3534 71.1001 46.0534 71.7101 44.2634 71.1201C44.1602 71.1149 44.0567 71.1149 43.9534 71.1201H43.8634C43.0862 73.3421 42.5956 75.6541 42.4034 78.0001L42.8434 78.1301C43.4434 78.3101 44.0134 78.4701 44.5934 78.6601C45.1262 78.8018 45.5969 79.1163 45.9317 79.5542C46.2665 79.9922 46.4465 80.5289 46.4434 81.0801C46.4768 83.5216 46.7922 85.9511 47.3834 88.3201C47.4711 88.8035 47.4242 89.3017 47.2478 89.7603C47.0714 90.2188 46.7724 90.62 46.3834 90.9201C46.1652 91.1173 45.9273 91.2915 45.6734 91.4401C45.3726 91.6066 45.1048 91.827 44.8834 92.0901C45.8738 94.4291 47.3067 96.5547 49.1034 98.3501C49.7125 98.1349 50.2961 97.8532 50.8434 97.5101L51.5234 97.1301C51.7253 96.9713 51.9575 96.8556 52.2058 96.79C52.4541 96.7244 52.7132 96.7104 52.9671 96.7488C53.2211 96.7872 53.4644 96.8773 53.6822 97.0134C53.9 97.1495 54.0876 97.3287 54.2334 97.5401C55.1142 98.5098 56.1236 99.3543 57.2334 100.05C57.6555 100.286 58.0931 100.494 58.5434 100.67L59.1334 100.92C59.7313 101.13 60.2324 101.55 60.5433 102.102C60.8543 102.654 60.9538 103.3 60.8234 103.92C60.8234 104.09 60.7534 104.26 60.7134 104.44C60.6073 104.8 60.58 105.179 60.6334 105.55C61.6188 106.062 62.6587 106.461 63.7334 106.74L64.7334 107.04C65.2424 107.187 65.7652 107.281 66.2934 107.32C67.2023 107.363 68.0889 107.617 68.8834 108.06C69.11 107.783 69.2983 107.477 69.4434 107.15C69.651 106.665 69.9497 106.223 70.3234 105.85C70.1898 105.683 70.1035 105.482 70.0734 105.27C70.0595 105.071 70.0909 104.871 70.1654 104.686C70.2399 104.5 70.3555 104.334 70.5034 104.2C70.8266 103.932 71.2178 103.759 71.6334 103.7C72.9671 103.516 74.2755 103.18 75.5334 102.7L76.8534 102.29C77.466 102.015 78.1601 101.981 78.7963 102.196C79.4325 102.412 79.9638 102.859 80.2834 103.45L80.3834 103.57C80.4523 103.649 80.5158 103.733 80.5734 103.82C80.6366 103.925 80.7068 104.025 80.7834 104.12C81.0725 104.454 81.2599 104.863 81.3234 105.3C81.9794 105.166 82.606 104.915 83.1734 104.56C84.8134 103.56 86.4534 102.56 88.0434 101.56C88.619 101.254 89.0576 100.742 89.2709 100.126C89.4843 99.5103 89.4566 98.8364 89.1934 98.2401C88.4034 96.3601 89.0234 94.8201 90.1334 93.3401C90.3234 93.0801 90.5034 92.8201 90.6734 92.5501C91.0647 91.8838 91.5889 91.3051 92.2134 90.8501C92.0542 90.6997 91.9304 90.5159 91.8508 90.3118C91.7713 90.1078 91.738 89.8886 91.7534 89.6701C91.7649 89.4053 91.8616 89.1512 92.0292 88.9458C92.1968 88.7403 92.4263 88.5946 92.6834 88.5301C93.209 88.4142 93.7564 88.4463 94.2649 88.6228C94.7733 88.7993 95.2228 89.1134 95.5634 89.5301C95.9594 89.116 96.2329 88.6003 96.3534 88.0401C96.8634 86.0401 97.3534 84.0401 97.8134 82.0401C98.0191 81.4193 97.9842 80.744 97.7157 80.1477C97.4472 79.5514 96.9646 79.0776 96.3634 78.8201C95.4618 78.4799 94.6856 77.8724 94.1388 77.0789C93.5919 76.2854 93.3005 75.3438 93.3034 74.3801C93.2143 73.7449 93.0807 73.1167 92.9034 72.5001C92.7599 71.9584 92.7448 71.3906 92.8594 70.842C92.974 70.2934 93.2151 69.7791 93.5634 69.3401C93.9498 68.8288 94.2943 68.287 94.5934 67.7201ZM32.5934 56.8401C31.2709 58.1788 29.475 58.9438 27.5934 58.9701H27.5434C25.8464 58.8619 24.2502 58.1263 23.0655 56.9065C21.8807 55.6866 21.1921 54.0696 21.1334 52.3701C21.1158 51.4915 21.2749 50.6183 21.6013 49.8023C21.9277 48.9863 22.4147 48.2442 23.0334 47.6201C24.3188 46.259 26.0921 45.464 27.9634 45.4101C29.6729 45.3766 31.3263 46.02 32.5634 47.2001C33.2131 47.8583 33.7247 48.6396 34.0682 49.4982C34.4116 50.3569 34.58 51.2755 34.5634 52.2001C34.5444 53.9461 33.8363 55.6138 32.5934 56.8401ZM69.4634 92.1201C66.1869 92.0539 63.0684 90.6994 60.7834 88.3501C59.6687 87.2147 58.7975 85.8636 58.2231 84.3797C57.6488 82.8958 57.3835 81.3102 57.4434 79.7201C57.4845 77.3056 58.2315 74.956 59.5921 72.9609C60.9527 70.9659 62.8675 69.4127 65.1004 68.493C67.3333 67.5732 69.7865 67.3272 72.1575 67.7851C74.5286 68.2431 76.7137 69.385 78.4434 71.0701C79.6201 72.2754 80.5432 73.7044 81.1581 75.2726C81.773 76.8407 82.0673 78.5163 82.0234 80.2001C81.9134 87.5701 75.4434 92.1201 69.4634 92.1201Z" fill="#FDD46B" class="ali-icon-highlight" />
	  <path d="M83.2637 22.74C82.7839 22.8097 82.2948 22.7087 81.8817 22.4547C81.4687 22.2007 81.158 21.8097 81.0037 21.35C80.0737 19.35 79.6637 17.35 81.7737 15.76C81.8919 15.6527 81.9931 15.5279 82.0737 15.39C82.3859 15.0194 82.5725 14.5593 82.6067 14.0759C82.6408 13.5926 82.5207 13.1108 82.2637 12.7C81.3843 10.9891 80.2288 9.43495 78.8437 8.10001C78.5585 7.81571 78.1966 7.62077 77.8023 7.53906C77.408 7.45736 76.9984 7.49244 76.6237 7.64001C76.0327 7.87886 75.461 8.16304 74.9137 8.49001C74.4961 8.72884 74.0186 8.84262 73.5382 8.8178C73.0577 8.79298 72.5945 8.63061 72.2037 8.35001C71.5237 7.94001 70.8137 7.56001 70.1237 7.15001C69.762 6.96567 69.4649 6.67559 69.272 6.31834C69.0791 5.9611 68.9994 5.5536 69.0437 5.15001C69.2437 3.15001 68.1037 2.23001 66.3837 1.77001C65.4666 1.48863 64.531 1.27144 63.5837 1.12001C62.5031 0.889256 61.3801 0.954905 60.3337 1.31001C60.6168 1.28916 60.8994 1.35546 61.1437 1.50001C61.3107 1.61178 61.4505 1.75969 61.5526 1.93279C61.6548 2.10589 61.7167 2.29975 61.7337 2.50001C61.9747 4.05895 61.7193 5.6542 61.0037 7.06001L60.8937 7.25001L60.6737 7.30001C60.5065 7.33907 60.3354 7.35919 60.1637 7.36001C59.8428 7.37845 59.5253 7.28672 59.2637 7.10001C59.1033 6.96841 58.9782 6.79895 58.8996 6.60691C58.8211 6.41488 58.7915 6.2063 58.8137 6.00001C58.8388 5.57705 58.8388 5.15297 58.8137 4.73001C58.8137 4.54001 58.8137 4.34001 58.8137 4.14001V4.19001C58.7951 4.34813 58.7547 4.50293 58.6937 4.65001C58.1558 5.70371 57.2254 6.50386 56.103 6.87798C54.9807 7.2521 53.7563 7.17023 52.6937 6.65001C51.7637 6.07001 51.0537 5.04001 49.7737 5.28001C48.6729 5.57539 47.6758 6.17088 46.8937 7.00001C46.4137 7.42001 45.9837 7.90001 45.5137 8.34001C45.1205 8.63981 44.7932 9.0174 44.5524 9.44924C44.3115 9.88108 44.1622 10.3579 44.1137 10.85C44.1696 10.7826 44.2334 10.7222 44.3037 10.67C44.675 10.4287 45.127 10.3448 45.5602 10.4367C45.9934 10.5286 46.3723 10.7888 46.6137 11.16L46.9637 11.56C47.277 11.9 47.577 12.25 47.8637 12.61C48.2544 13.0445 48.482 13.6012 48.5075 14.1849C48.5331 14.7686 48.355 15.3431 48.0037 15.81C47.5537 16.5 47.1337 17.24 46.7237 17.95C46.4337 18.46 46.1337 18.95 45.8337 19.47C45.7318 19.6468 45.5865 19.7947 45.4115 19.8997C45.2365 20.0046 45.0377 20.0633 44.8337 20.07C44.6972 20.0712 44.5617 20.0475 44.4337 20C44.2837 19.9495 44.1453 19.8695 44.0266 19.7649C43.9079 19.6602 43.8113 19.5329 43.7424 19.3904C43.6735 19.248 43.6337 19.0932 43.6253 18.9351C43.617 18.7771 43.6402 18.619 43.6937 18.47C43.809 17.9129 44.0009 17.3745 44.2637 16.87L44.1937 16.98C43.9595 17.512 43.5692 17.9604 43.0746 18.2657C42.58 18.5711 42.0043 18.719 41.4237 18.69C41.5517 18.9177 41.6311 19.1694 41.6569 19.4293C41.6827 19.6892 41.6544 19.9516 41.5737 20.2C41.187 21.9067 40.817 23.62 40.4637 25.34C40.4431 25.5094 40.4431 25.6806 40.4637 25.85C40.4637 25.85 40.4637 25.85 40.4637 25.92C40.9186 26.2141 41.4355 26.3989 41.9737 26.46C42.1724 26.4894 42.3693 26.5295 42.5637 26.58C43.2526 26.6769 43.8926 26.9909 44.3908 27.4765C44.8889 27.9621 45.2192 28.5938 45.3337 29.28C45.6117 30.5402 45.9657 31.7825 46.3937 33L46.6137 33.63C46.7648 34.0169 46.7959 34.4402 46.7032 34.8451C46.6105 35.2499 46.3981 35.6175 46.0937 35.9C45.6537 36.32 45.1937 36.72 44.6837 37.16L44.3537 37.46L47.9337 41.88L48.3237 41.64C48.8737 41.32 49.3837 41.01 49.8937 40.64C50.2537 40.3684 50.6828 40.2038 51.1321 40.1648C51.5813 40.1259 52.0324 40.2144 52.4337 40.42C52.8737 40.66 53.3237 40.89 53.7737 41.11C55.0758 41.7255 56.3265 42.4445 57.5137 43.26C58.8937 44.26 59.0637 44.73 58.6037 46.42C58.5137 46.73 58.4237 47.04 58.3037 47.42V47.52C60.1018 48.0372 61.9796 48.2203 63.8437 48.06C63.9122 47.7108 63.9224 47.3526 63.8737 47C63.8346 46.6678 63.8346 46.3322 63.8737 46C63.8875 45.5292 64.0584 45.0765 64.3592 44.7141C64.66 44.3516 65.0735 44.1003 65.5337 44L66.1237 43.86C67.7698 43.5372 69.3735 43.0272 70.9037 42.34C71.2923 42.1355 71.7414 42.0776 72.1691 42.1767C72.5969 42.2758 72.9747 42.5254 73.2337 42.88L73.5137 43.23C73.9003 43.6731 74.2577 44.1407 74.5837 44.63C74.8239 44.9769 74.9173 45.4046 74.8437 45.82C75.1915 45.7087 75.5267 45.5613 75.8437 45.38C77.2767 44.6625 78.5596 43.6783 79.6237 42.48C79.9544 42.1268 80.163 41.6767 80.2188 41.1961C80.2746 40.7155 80.1747 40.2296 79.9337 39.81C79.8006 39.5207 79.6327 39.2487 79.4337 39C77.9737 37.42 78.4337 35.83 79.2737 34.14C79.4248 33.7714 79.6515 33.4386 79.9391 33.163C80.2268 32.8874 80.569 32.6752 80.9437 32.54C80.9145 32.3042 80.9145 32.0658 80.9437 31.83C80.9437 31.68 80.9437 31.5 80.9437 31.3V30.73L81.5137 30.84C81.8137 30.91 82.1237 30.95 82.4137 30.99C83.3271 31.0312 84.1989 31.3842 84.8837 31.99C85.3839 31.3679 85.693 30.6142 85.7737 29.82C85.9537 28.71 86.2337 27.62 86.3637 26.51C86.7837 24.2 86.6037 22.34 83.2637 22.74ZM63.1037 35.58H62.9437C61.5894 35.5742 60.25 35.2968 59.0047 34.7644C57.7594 34.2319 56.6336 33.4551 55.6937 32.48C54.8216 31.5642 54.1429 30.4822 53.6979 29.2985C53.2529 28.1147 53.0508 26.8535 53.1037 25.59C53.3137 19.59 57.4737 15.51 63.2137 15.59C65.9687 15.6582 68.5852 16.8119 70.4937 18.8C71.3856 19.6873 72.0904 20.7445 72.5662 21.9091C73.042 23.0738 73.2792 24.322 73.2637 25.58C73.214 28.2443 72.1227 30.7832 70.2235 32.6524C68.3243 34.5217 65.7685 35.5726 63.1037 35.58Z" fill="#FDD46B" class="ali-icon-highlight" />
	  <path d="M45.2635 14.25C45.2231 14.8178 45.0701 15.3719 44.8135 15.88C45.0435 15.46 45.2735 15.06 45.4535 14.65C45.4128 14.5071 45.3486 14.3719 45.2635 14.25Z" fill="#FDD46B" class="ali-icon-highlight" />
	  <path d="M9.84367 66.7101L9.51367 66.3101C9.55297 66.7024 9.55297 67.0977 9.51367 67.4901C9.6489 67.2415 9.75943 66.9802 9.84367 66.7101Z" fill="#FDD46B" class="ali-icon-highlight" />
	  <path d="M5.15377 44.3C5.08224 44.1784 4.98284 44.0756 4.86377 44C4.96318 44.1282 5.05024 44.2654 5.12377 44.41L5.15377 44.3Z" fill="#FDD46B" class="ali-icon-highlight" />
	  <path d="M36.9735 73.2401C37.1283 73.3756 37.317 73.4667 37.5195 73.5037C37.722 73.5407 37.9307 73.5221 38.1235 73.4501C38.5635 73.2701 38.9935 73.0701 39.4235 72.8601L39.6735 72.7401C39.8966 72.6181 40.1047 72.4704 40.2935 72.3001C40.4133 72.1977 40.5403 72.1042 40.6735 72.0201L40.5935 72.3201V72.4301C40.0666 74.3038 39.7118 76.2218 39.5335 78.1601C39.4843 78.5686 39.4843 78.9815 39.5335 79.3901C39.6635 80.3201 40.2335 80.6701 41.5335 81.0701L42.1535 81.2401H42.3035C42.7565 81.3294 43.1879 81.506 43.5735 81.7601C43.6744 83.4688 43.8647 85.1711 44.1435 86.8601C44.2335 87.4601 44.3235 88.0701 44.4035 88.6901L44.1335 88.8901C43.7935 89.1301 43.4835 89.36 43.1935 89.59C42.9837 89.7552 42.7865 89.9357 42.6035 90.1301C41.8935 90.8601 41.7735 91.5301 42.2735 92.8501C42.6588 93.7874 43.1099 94.6963 43.6235 95.5701L43.6835 95.7001C44.1588 96.5808 44.6864 97.4323 45.2635 98.2501C45.8 98.9812 46.3881 99.6729 47.0235 100.32C47.1835 100.47 47.3235 100.64 47.4835 100.79C48.6935 101.92 49.2335 101.89 50.5935 101.19C50.867 101.04 51.1309 100.873 51.3835 100.69C51.7248 100.427 52.1064 100.221 52.5135 100.08C53.8805 101.409 55.45 102.513 57.1635 103.35L57.2935 103.43C57.8535 103.73 57.8935 104.03 57.7635 104.43C57.7681 104.45 57.7681 104.47 57.7635 104.49C57.6925 104.729 57.639 104.973 57.6035 105.22C57.4035 107.05 57.7035 107.57 59.3935 108.32C61.4102 109.193 63.5208 109.83 65.6835 110.22C66.25 110.331 66.8262 110.385 67.4035 110.38H67.9535C68.1592 110.384 68.3633 110.344 68.5516 110.261C68.7399 110.178 68.9078 110.055 69.0435 109.9C69.1891 109.716 69.2939 109.503 69.3508 109.276C69.4078 109.048 69.4155 108.811 69.3735 108.58V108.37L69.2135 108.24C69.1235 108.18 69.0335 108.14 68.9535 108.08C68.1589 107.637 67.2724 107.383 66.3635 107.34C65.8352 107.301 65.3124 107.207 64.8035 107.06L63.8035 106.76C62.7287 106.481 61.6888 106.082 60.7035 105.57C60.65 105.199 60.6773 104.82 60.7835 104.46C60.7835 104.28 60.8635 104.11 60.8935 103.94C61.0238 103.32 60.9243 102.674 60.6133 102.122C60.3024 101.57 59.8013 101.15 59.2035 100.94L58.6135 100.69C58.1632 100.514 57.7255 100.306 57.3035 100.07C56.1936 99.3742 55.1842 98.5297 54.3035 97.5601C54.1576 97.3487 53.97 97.1694 53.7522 97.0333C53.5345 96.8972 53.2911 96.8071 53.0372 96.7687C52.7832 96.7303 52.5241 96.7443 52.2758 96.8099C52.0275 96.8755 51.7953 96.9913 51.5935 97.1501L50.9135 97.5301C50.3661 97.8731 49.7826 98.1548 49.1735 98.3701C47.3768 96.5746 45.9438 94.449 44.9535 92.1101C45.1748 91.8469 45.4426 91.6266 45.7435 91.4601C45.9973 91.3115 46.2352 91.1372 46.4535 90.9401C46.8424 90.64 47.1414 90.2387 47.3178 89.7802C47.4942 89.3217 47.5411 88.8235 47.4535 88.34C46.8622 85.971 46.5468 83.5415 46.5135 81.1001C46.5165 80.5488 46.3365 80.0121 46.0017 79.5742C45.6669 79.1362 45.1962 78.8217 44.6635 78.6801C44.0835 78.4901 43.5135 78.3301 42.9135 78.1501L42.4035 78.0001C42.616 75.6827 43.12 73.4013 43.9035 71.2101H43.9935C44.0967 71.2048 44.2002 71.2048 44.3035 71.2101C46.0935 71.8001 47.4335 71.2101 48.3935 69.3601C49.1349 67.8969 50.048 66.5272 51.1135 65.2801L51.4235 64.9201C53.3235 62.7701 53.4235 62.1201 50.9735 59.4901C50.5253 59.0107 50.0477 58.5599 49.5435 58.1401C49.3306 57.9654 49.0638 57.8699 48.7885 57.8699C48.5131 57.8699 48.2463 57.9654 48.0335 58.1401C47.8081 58.2996 47.6471 58.5342 47.5793 58.8018C47.5115 59.0694 47.5413 59.3525 47.6635 59.6001C47.7777 59.8354 47.908 60.0626 48.0535 60.2801C48.1335 60.4001 48.2235 60.5301 48.2935 60.6601C48.4828 60.9628 48.7041 61.2444 48.9535 61.5001C49.2545 61.7722 49.4815 62.1163 49.6135 62.5001L49.0435 63.2701C48.5335 63.9601 48.0435 64.68 47.4335 65.34C47.0364 65.8344 46.7006 66.375 46.4335 66.9501C46.1767 67.494 45.8396 67.9963 45.4335 68.4401C44.8397 68.4101 44.2611 68.2423 43.7435 67.9501C43.243 67.6842 42.7026 67.5019 42.1435 67.4101H42.0035L41.8735 67.4701C40.4576 68.1899 39.1457 69.0982 37.9735 70.1701C37.6335 70.4601 37.2935 70.7501 36.9735 71.0301C36.7912 71.1827 36.6503 71.3787 36.5635 71.6001C36.4561 71.8243 36.4133 72.0741 36.4398 72.3213C36.4662 72.5686 36.561 72.8036 36.7135 73.0001C36.7905 73.0899 36.8777 73.1704 36.9735 73.2401Z" fill="#1B1624"/>
	  <path d="M78.4038 71.06C76.6741 69.3749 74.4889 68.233 72.1179 67.775C69.7468 67.3171 67.2936 67.5631 65.0608 68.4828C62.8279 69.4026 60.9131 70.9557 59.5525 72.9508C58.1918 74.9458 57.4449 77.2955 57.4038 79.71C57.3439 81.3001 57.6092 82.8856 58.1835 84.3696C58.7578 85.8535 59.6291 87.2046 60.7438 88.34C63.0288 90.6893 66.1473 92.0437 69.4238 92.11C75.4238 92.11 81.8738 87.56 81.9438 80.18C81.9916 78.5006 81.703 76.8286 81.0951 75.2624C80.4871 73.6962 79.5721 72.2674 78.4038 71.06ZM78.6738 79.67C78.6925 80.902 78.4641 82.1252 78.0021 83.2673C77.54 84.4095 76.8538 85.4475 75.9838 86.32C75.2128 87.1355 74.2822 87.7836 73.25 88.224C72.2178 88.6644 71.106 88.8877 69.9838 88.88C64.4038 88.82 60.3338 84.88 60.3038 79.5C60.3068 78.3315 60.5457 77.1756 61.0063 76.1016C61.4668 75.0277 62.1394 74.0577 62.9838 73.25C64.7487 71.4998 67.1282 70.5092 69.6138 70.49H69.7938C72.1646 70.5944 74.4057 71.6011 76.0584 73.304C77.7112 75.0069 78.6504 77.2772 78.6838 79.65L78.6738 79.67Z" fill="#1B1624"/>
	  <path d="M48.3236 41.59L47.9336 41.83L44.3536 37.41L44.6836 37.11C45.1936 36.67 45.6836 36.27 46.0936 35.85C46.398 35.5675 46.6104 35.1999 46.7031 34.7951C46.7958 34.3902 46.7647 33.9669 46.6136 33.58L46.3936 33C45.9641 31.7991 45.6068 30.5736 45.3236 29.33C45.2091 28.6438 44.8788 28.0121 44.3807 27.5265C43.8825 27.0409 43.2425 26.7269 42.5536 26.63C42.3592 26.5795 42.1623 26.5394 41.9636 26.51C41.4254 26.4489 40.9085 26.2641 40.4536 25.97C40.4536 25.97 40.4536 25.92 40.4536 25.9C40.433 25.7306 40.433 25.5594 40.4536 25.39C40.8069 23.67 41.177 21.9567 41.5636 20.25C41.6443 20.0016 41.6726 19.7392 41.6468 19.4793C41.621 19.2194 41.5416 18.9677 41.4136 18.74C41.2395 18.5094 40.993 18.3438 40.7136 18.27C39.5536 17.92 39.0436 19.02 38.8736 19.38C38.8249 19.4832 38.7848 19.5902 38.7536 19.7C38.7536 19.78 38.6936 19.87 38.6736 19.95L38.3136 21.68C38.0036 23.11 37.6836 24.59 37.4636 26.06C37.1836 27.95 38.0936 28.61 39.5436 29.06C39.9024 29.1544 40.2663 29.2279 40.6336 29.28C40.971 29.3333 41.305 29.4068 41.6336 29.5L41.9436 29.6C42.1441 29.6698 42.3381 29.7568 42.5236 29.86L43.8436 34C43.497 34.4534 43.0898 34.8571 42.6336 35.2C42.3936 35.41 42.1436 35.61 41.9236 35.83C41.5618 36.1485 41.3271 36.5869 41.2628 37.0646C41.1985 37.5423 41.3088 38.0272 41.5736 38.43C42.9602 40.5229 44.5477 42.4755 46.3136 44.26C47.3836 45.32 48.2536 45.12 49.3136 44.47C49.5936 44.29 49.8636 44.09 50.1236 43.9C50.5467 43.5173 51.0342 43.2126 51.5636 43C52.0336 43.28 52.5636 43.54 52.9936 43.79C53.9927 44.2876 54.9434 44.8768 55.8336 45.55L55.7136 46.01C55.5836 46.48 55.4636 46.94 55.3636 47.41C55.3483 47.4911 55.3283 47.5713 55.3036 47.65C55.2255 47.9041 55.2007 48.1717 55.2308 48.4358C55.2609 48.7 55.3452 48.9551 55.4785 49.1851C55.6119 49.4152 55.7913 49.6152 56.0055 49.7726C56.2198 49.93 56.4643 50.0415 56.7236 50.1C58.7005 50.6279 60.7375 50.8968 62.7836 50.9C63.2736 50.9 63.7836 50.9 64.2436 50.9C64.8435 50.886 65.4162 50.6468 65.8479 50.2299C66.2796 49.8131 66.5386 49.2491 66.5736 48.65C66.6217 48.319 66.6418 47.9844 66.6336 47.65C66.5971 47.2004 66.6515 46.7481 66.7936 46.32C67.7513 46.2583 68.6947 46.0562 69.5936 45.72C70.1419 45.5376 70.6993 45.3841 71.2636 45.26C71.3521 45.3486 71.4356 45.4421 71.5136 45.54C71.8336 45.89 72.1336 46.23 72.5136 46.54C72.6815 46.7351 72.9013 46.8785 73.1474 46.9536C73.3936 47.0288 73.656 47.0325 73.9042 46.9645C74.1523 46.8964 74.3761 46.7593 74.5495 46.5691C74.7229 46.3789 74.8387 46.1434 74.8836 45.89C74.9572 45.4746 74.8638 45.0469 74.6236 44.7C74.2976 44.2107 73.9402 43.7431 73.5536 43.3L73.2636 42.9C73.0046 42.5455 72.6268 42.2958 72.199 42.1967C71.7713 42.0976 71.3222 42.1555 70.9336 42.36C69.4034 43.0472 67.7997 43.5572 66.1536 43.88L65.5636 44.02C65.1029 44.1155 64.6874 44.3622 64.383 44.721C64.0786 45.0797 63.9028 45.5299 63.8836 46C63.8445 46.3322 63.8445 46.6678 63.8836 47C63.9126 47.335 63.889 47.6724 63.8136 48C61.9486 48.1745 60.0674 48.005 58.2636 47.5V47.4C58.3836 47.04 58.4736 46.73 58.5636 46.4C59.0236 44.71 58.8536 44.24 57.4736 43.24C56.2864 42.4245 55.0357 41.7055 53.7336 41.09C53.2836 40.87 52.8336 40.64 52.3936 40.4C51.9923 40.1944 51.5412 40.1059 51.092 40.1448C50.6428 40.1838 50.2136 40.3484 49.8536 40.62C49.3836 41 48.8736 41.27 48.3236 41.59Z" fill="#1B1624"/>
	  <path d="M19.6338 76.3499C19.7938 76.1499 19.9438 75.9399 20.0938 75.7199C20.3316 75.3031 20.677 74.9577 21.0938 74.7199C21.5826 74.7222 22.0658 74.8243 22.5138 75.0199C22.8376 75.1493 23.1723 75.2497 23.5138 75.3199L25.2638 75.6799L25.7738 75.7899L25.8638 76.2399C25.9638 76.7999 26.0638 77.3399 26.1738 77.8699C26.5638 79.7399 27.1738 80.3399 28.8038 80.3399H29.2638C31.8823 80.2359 34.4619 79.6706 36.8838 78.6699C37.2118 78.539 37.5238 78.3713 37.8138 78.1699C38.089 78.0245 38.3023 77.7844 38.4144 77.494C38.5265 77.2037 38.5299 76.8826 38.4238 76.5899C38.3195 76.3045 38.1147 76.0668 37.8478 75.9214C37.581 75.776 37.2702 75.7328 36.9738 75.7999H36.8538C35.5638 76.1099 34.3038 76.4399 33.1238 76.7999C31.867 77.2411 30.5229 77.3748 29.2038 77.1899C29.0215 76.7182 28.9332 76.2155 28.9438 75.7099V75.1799C28.938 74.588 28.7164 74.0186 28.3205 73.5786C27.9247 73.1385 27.3818 72.8581 26.7938 72.7899H26.5438C24.9985 72.549 23.4764 72.1777 21.9938 71.6799C21.397 71.4409 20.7335 71.4279 20.1278 71.6433C19.522 71.8587 19.0157 72.2877 18.7038 72.8499C18.3838 73.3499 18.0638 73.8499 17.7038 74.3599L17.3538 74.8899C14.8738 74.1399 13.1738 72.4899 11.3538 70.7399L11.1538 70.5499L11.4038 70.1099C11.7138 69.5899 12.0038 69.1099 12.2938 68.5699C13.4138 66.5699 13.3738 66.0999 11.9638 64.3999L11.4438 63.7799C10.7888 63.0537 10.1998 62.2707 9.68381 61.4399C9.38918 60.8372 8.88791 60.3602 8.27124 60.0959C7.65456 59.8317 6.9635 59.7976 6.32382 59.9999C6.10382 60.0533 5.88382 60.1133 5.66382 60.1799C5.2328 60.3418 4.77394 60.4166 4.31382 60.3999C3.80801 59.1796 3.4326 57.9092 3.19382 56.6099C3.08382 56.0999 2.96382 55.6099 2.84382 55.0799L2.74382 54.7099C2.56382 53.9899 2.38382 53.2499 2.14382 52.5199C2.06754 52.3521 1.9492 52.2069 1.80028 52.0982C1.65136 51.9896 1.4769 51.9213 1.29381 51.8999C1.21443 51.8859 1.1332 51.8859 1.05382 51.8999C0.829793 51.9201 0.61632 52.0043 0.438964 52.1427C0.261609 52.281 0.12789 52.4675 0.053817 52.6799C-0.017939 53.1271 -0.017939 53.5828 0.053817 54.0299C0.333748 56.6018 0.862899 59.1404 1.63382 61.6099C2.19382 63.3699 3.02382 63.8399 4.91382 63.4899C5.44382 63.3899 5.97382 63.2699 6.55382 63.1299L7.03382 63.0099C7.78056 64.1893 8.61279 65.3123 9.52381 66.3699L9.85382 66.7699C9.75358 67.042 9.62628 67.3033 9.47381 67.5499C9.32048 67.8033 9.16048 68.0533 8.99382 68.2999C8.79217 68.5765 8.60524 68.8636 8.43381 69.1599C7.74381 70.3599 7.57382 71.2199 8.66382 72.3499C10.5665 74.4979 12.8916 76.2306 15.4938 77.4399C17.3338 78.1499 18.3438 77.8999 19.6338 76.3499Z" fill="#1B1624"/>
	  <path d="M63.2637 15.6201C57.5237 15.5101 53.3637 19.6201 53.1537 25.6201C53.1009 26.8836 53.3029 28.1448 53.7479 29.3285C54.1929 30.5123 54.8717 31.5943 55.7437 32.5101C56.6836 33.4852 57.8095 34.262 59.0547 34.7944C60.3 35.3269 61.6394 35.6042 62.9937 35.6101H63.1537C65.8116 35.5923 68.3573 34.5367 70.2478 32.6686C72.1384 30.8004 73.2242 28.2675 73.2737 25.6101C73.2905 24.3599 73.0576 23.119 72.5889 21.96C72.1201 20.801 71.4248 19.7471 70.5437 18.8601C68.6403 16.8609 66.0231 15.6962 63.2637 15.6201ZM68.1037 30.4601C67.5489 31.1118 66.8635 31.6399 66.0918 32.0102C65.3201 32.3806 64.4793 32.5849 63.6237 32.6101C59.0837 32.6101 55.8337 29.6101 55.7637 25.1701C55.7839 24.3281 55.971 23.4985 56.3144 22.7295C56.6577 21.9604 57.1504 21.2672 57.7637 20.6901C59.1207 19.2837 60.9707 18.4591 62.9237 18.3901H63.0037C64.8603 18.3901 66.6407 19.1276 67.9535 20.4403C69.2663 21.7531 70.0037 23.5336 70.0037 25.3901C69.9968 27.2619 69.3029 29.066 68.0537 30.4601H68.1037Z" fill="#1B1624"/>
	  <path d="M27.5239 58.9999H27.5739C29.4555 58.9736 31.2513 58.2086 32.5739 56.8699C33.1983 56.2616 33.6965 55.5358 34.0397 54.7344C34.3829 53.933 34.5645 53.0717 34.5739 52.1999C34.5905 51.2753 34.4221 50.3567 34.0786 49.498C33.7352 48.6394 33.2236 47.8581 32.5739 47.1999C31.3368 46.0198 29.6833 45.3764 27.9739 45.4099C26.1025 45.4638 24.3292 46.2588 23.0439 47.6199C22.4252 48.2441 21.9382 48.9861 21.6118 49.8021C21.2854 50.6181 21.1263 51.4913 21.1439 52.3699C21.1946 54.0699 21.8758 55.6902 23.055 56.9156C24.2342 58.1411 25.8272 58.884 27.5239 58.9999ZM27.8039 48.1599H27.8739C28.3613 48.1655 28.8427 48.2673 29.2906 48.4595C29.7385 48.6517 30.1441 48.9305 30.4839 49.2799C30.8816 49.6721 31.1976 50.139 31.4139 50.6539C31.6302 51.1688 31.7423 51.7215 31.7439 52.2799C31.7597 52.7892 31.6699 53.2963 31.48 53.7691C31.2902 54.242 31.0045 54.6704 30.641 55.0273C30.2774 55.3843 29.8439 55.6622 29.3676 55.8433C28.8914 56.0245 28.3828 56.105 27.8739 56.0799C26.7482 56.075 25.67 55.6258 24.8739 54.8299C24.5141 54.4734 24.2303 54.0477 24.0395 53.5785C23.8487 53.1093 23.755 52.6064 23.7639 52.0999C23.8239 49.5899 25.2639 48.1799 27.8039 48.1299V48.1599Z" fill="#1B1624"/>
	  <path d="M2.83368 41.2299C2.77994 41.3023 2.73933 41.3835 2.71368 41.4699C2.66284 41.6549 2.6517 41.8485 2.68099 42.0381C2.71029 42.2277 2.77937 42.4089 2.88368 42.5699C3.17703 42.9087 3.51319 43.2079 3.88368 43.4599C4.07608 43.589 4.28033 43.6995 4.49368 43.7899C4.63584 43.8525 4.77292 43.9261 4.90368 44.0099C5.02161 44.0827 5.12091 44.182 5.19368 44.2999V44.4199C5.19368 44.5799 5.12368 44.7499 5.09368 44.9099C4.97368 45.5299 4.84368 46.1699 4.66368 46.7899C4.42433 47.5549 4.28977 48.3488 4.26368 49.1499C4.26368 49.3599 4.26368 49.5699 4.26368 49.7799C4.22345 50.2454 4.34744 50.7102 4.61412 51.0938C4.88081 51.4774 5.27337 51.7555 5.72368 51.8799H5.88368H6.02368C6.26412 51.817 6.48349 51.6912 6.65923 51.5155C6.83498 51.3397 6.96076 51.1204 7.02368 50.8799L7.17368 50.0899C7.54368 48.0899 7.91368 46.0899 8.24368 44.0899C8.32809 43.6718 8.27657 43.2376 8.09666 42.8508C7.91675 42.464 7.61787 42.1448 7.24368 41.9399C6.23574 41.3563 5.14244 40.9345 4.00368 40.6899C3.77665 40.6455 3.54138 40.6737 3.33133 40.7707C3.12128 40.8676 2.94714 41.0283 2.83368 41.2299Z" fill="#1B1624"/>
	  <path d="M76.5936 105.47L77.9436 105.13C78.0401 105.327 78.1647 105.509 78.3136 105.67C79.0036 106.36 79.5836 106.82 80.1436 106.82H80.2636C80.4233 106.811 80.5783 106.763 80.7158 106.681C80.8533 106.599 80.9691 106.486 81.0536 106.35C81.2886 106.072 81.4069 105.714 81.3836 105.35C81.32 104.913 81.1326 104.504 80.8436 104.17C80.767 104.075 80.6968 103.975 80.6336 103.87C80.5759 103.783 80.5124 103.699 80.4436 103.62L80.3436 103.5C80.0239 102.909 79.4926 102.462 78.8564 102.246C78.2202 102.031 77.5262 102.065 76.9136 102.34L75.5936 102.75C74.3357 103.23 73.0273 103.565 71.6936 103.75C71.2779 103.809 70.8868 103.982 70.5636 104.25C70.4156 104.384 70.3001 104.55 70.2256 104.736C70.1511 104.921 70.1196 105.121 70.1336 105.32C70.1636 105.532 70.25 105.733 70.3836 105.9C70.4949 106.046 70.6343 106.169 70.7936 106.26C71.5729 106.572 72.4377 106.597 73.2336 106.33C74.2636 106.07 75.3536 105.79 76.5936 105.47Z" fill="#1B1624"/>
	  <path d="M44.7636 15.9101C44.5836 16.2168 44.4136 16.5501 44.2536 16.9101C43.9864 17.4172 43.7912 17.9591 43.6736 18.5201C43.5809 18.8146 43.6062 19.1336 43.7443 19.4098C43.8824 19.6859 44.1224 19.8976 44.4136 20.0001C44.5416 20.0476 44.6771 20.0713 44.8136 20.0701C45.0176 20.0634 45.2164 20.0047 45.3914 19.8997C45.5664 19.7948 45.7117 19.6469 45.8136 19.4701C46.1136 18.9701 46.4136 18.4701 46.7036 17.9501C47.1136 17.2401 47.5336 16.5001 47.9836 15.8101C48.3349 15.3432 48.513 14.7687 48.4874 14.185C48.4619 13.6013 48.2343 13.0445 47.8436 12.6101C47.557 12.2501 47.2569 11.9001 46.9436 11.5601L46.5936 11.1601C46.4732 10.9743 46.3171 10.8143 46.1344 10.6894C45.9516 10.5645 45.7459 10.4772 45.5291 10.4325C45.3122 10.3879 45.0887 10.3868 44.8715 10.4293C44.6542 10.4718 44.4476 10.557 44.2636 10.6801C44.0149 10.8854 43.8223 11.1503 43.7036 11.4501C43.6687 11.7356 43.6914 12.0252 43.7704 12.3017C43.8495 12.5783 43.9832 12.8361 44.1636 13.0601C44.3355 13.3042 44.5297 13.5318 44.7436 13.7401C44.9098 13.8951 45.0605 14.0659 45.1936 14.2501C45.2787 14.372 45.3429 14.5071 45.3836 14.6501C45.2036 15.0601 44.9736 15.4601 44.7436 15.8801L44.7636 15.9101Z" fill="#1B1624"/>
	  <path d="M59.2639 7.09997C59.528 7.31709 59.8621 7.43081 60.2039 7.41997C60.3756 7.41915 60.5467 7.39903 60.7139 7.35997L60.9339 7.30997L61.0439 7.11997C61.7595 5.71416 62.0148 4.11891 61.7739 2.55997C61.7568 2.35971 61.6949 2.16585 61.5928 1.99275C61.4907 1.81965 61.3509 1.67173 61.1839 1.55997C60.9396 1.41542 60.6569 1.34912 60.3739 1.36997C60.0948 1.38049 59.8186 1.43101 59.5539 1.51997L59.3439 1.58997L59.2539 1.78997C58.9322 2.54732 58.7885 3.36838 58.8339 4.18997C58.8339 4.38997 58.8339 4.58997 58.8339 4.77997C58.859 5.20293 58.859 5.62701 58.8339 6.04997C58.8176 6.2465 58.8481 6.44408 58.9229 6.62657C58.9976 6.80906 59.1145 6.97128 59.2639 7.09997Z" fill="#1B1624"/>
	  <path d="M69.1537 49.4299H69.0537C68.7156 49.3368 68.3545 49.38 68.0479 49.5501C67.7413 49.7203 67.5136 50.0038 67.4137 50.3399C67.1252 51.0863 66.9304 51.8656 66.8337 52.6599C66.7631 53.2865 66.7867 53.9202 66.9037 54.5399C66.9734 54.7869 67.1122 55.0089 67.3037 55.1799L67.4837 55.3799L67.7737 55.7399L68.1537 55.4799C69.8637 54.3399 69.9637 52.6499 70.0537 51.1699V50.8899C70.1021 50.5792 70.0381 50.2615 69.8731 49.9938C69.7081 49.7261 69.453 49.5262 69.1537 49.4299Z" fill="#1B1624"/>
	  <path d="M16.6436 30.46C16.6871 31.1139 16.9434 31.7355 17.3736 32.23C17.5015 32.3675 17.6562 32.4775 17.8282 32.5532C18.0001 32.6288 18.1857 32.6686 18.3736 32.67C18.4984 32.6674 18.6225 32.6507 18.7436 32.62C18.9952 32.5501 19.218 32.402 19.3798 32.197C19.5416 31.9921 19.634 31.7409 19.6436 31.48C19.6575 30.6933 19.5288 29.9107 19.2636 29.17C19.1636 28.82 19.0536 28.47 18.9836 28.12C18.9155 27.9141 18.7915 27.7313 18.6255 27.5918C18.4595 27.4523 18.2581 27.3616 18.0436 27.33C17.8002 27.2929 17.5513 27.335 17.3336 27.45C17.065 27.5923 16.861 27.832 16.7636 28.12C16.6725 28.3984 16.599 28.6823 16.5436 28.97L16.4136 29.52L16.4736 29.67C16.5425 29.8435 16.5895 30.0249 16.6136 30.21C16.6293 30.2925 16.6393 30.3761 16.6436 30.46Z" fill="#1B1624"/>
	  <path d="M85.0537 32C84.3688 31.3941 83.4971 31.0412 82.5837 31C82.2937 31 81.9837 30.92 81.6837 30.85L81.1137 30.74V31.31C81.1137 31.51 81.1137 31.69 81.1137 31.84C81.0845 32.0758 81.0845 32.3142 81.1137 32.55C81.1039 32.6564 81.1039 32.7635 81.1137 32.87C81.2366 33.1389 81.4151 33.3786 81.6374 33.5734C81.8598 33.7682 82.121 33.9136 82.4037 34C82.8289 34.197 83.2863 34.3156 83.7537 34.35C84.3837 34.35 84.8337 33.98 85.4737 33.14L85.6637 32.89L85.5137 32.61C85.3924 32.3844 85.2372 32.1787 85.0537 32Z" fill="#1B1624"/>
	  <path d="M95.8834 90.46C95.8863 90.2269 95.8313 89.9967 95.7234 89.7901C95.6802 89.7155 95.6299 89.6452 95.5734 89.5801C95.2328 89.1633 94.7833 88.8493 94.2749 88.6727C93.7664 88.4962 93.219 88.4641 92.6934 88.5801C92.4363 88.6445 92.2068 88.7903 92.0392 88.9957C91.8716 89.2011 91.7749 89.4552 91.7634 89.7201C91.748 89.9385 91.7813 90.1577 91.8608 90.3617C91.9404 90.5658 92.0642 90.7497 92.2234 90.9001C92.456 91.1282 92.7312 91.3083 93.0334 91.4301C93.4475 91.6256 93.896 91.7377 94.3534 91.7601C94.7927 91.7611 95.2193 91.613 95.5634 91.34C95.6603 91.2556 95.7357 91.1494 95.7834 91.03L95.9134 90.7901V90.6201C95.8953 90.5686 95.8851 90.5146 95.8834 90.46Z" fill="#1B1624"/>
	</g>
	<defs>
	  <clipPath id="clip0_6458_7402">
		<rect width="110" height="110" fill="white"/>
	  </clipPath>
	</defs>
  </svg>