<svg xmlns="http://www.w3.org/2000/svg" width="120" height="110" viewBox="0 0 120 110" fill="none">
	<path d="M73.0546 48.4234C72.8415 47.1086 72.4406 45.8312 71.8643 44.6304C70.8568 42.582 69.3959 40.79 67.5925 39.3904C65.9535 38.1039 64.1156 37.0935 62.1511 36.399C60.2774 35.7965 58.324 35.4783 56.3559 35.4551C55.0845 35.4401 53.8162 35.5835 52.5803 35.882C51.1621 36.1564 49.798 36.6592 48.5409 37.3707C47.8226 37.7871 47.1528 38.2903 46.4588 38.7241C45.5845 39.2623 44.7812 39.9082 44.0678 40.6466C43.5963 41.1536 43.1636 41.6953 42.7734 42.2672C41.7339 43.7109 40.9735 45.3363 40.5316 47.0596C40.231 48.24 39.9993 49.4369 39.8376 50.6443C39.7152 51.4392 39.7001 52.2468 39.7925 53.0457C39.9105 53.9237 39.9035 54.812 40.0528 55.69C40.1373 56.3443 40.2648 56.9923 40.4345 57.6299C40.963 59.2403 41.7091 60.7709 42.652 62.1793C43.4448 63.4541 44.4785 64.5621 45.6953 65.4413C46.1499 65.7606 46.5768 66.118 47.0314 66.4304C48.62 67.5533 50.377 68.4166 52.2367 68.9879C52.6309 69.1204 53.0401 69.2032 53.4548 69.2343C54.2043 69.2586 54.947 69.3002 55.6931 69.3731C57.5213 69.5376 59.3639 69.325 61.1066 68.7485C62.9441 68.1212 64.7202 67.3267 66.4126 66.3748C66.8264 66.1447 67.2031 65.8534 67.53 65.5108C67.877 65.1637 68.1477 64.8167 68.4531 64.4454C69.6636 63.0729 70.7267 61.5772 71.6249 59.9827C72.2842 58.7885 72.7592 57.5016 73.0338 56.1654C73.313 54.858 73.4296 53.5211 73.3808 52.1851C73.412 50.923 73.3026 49.6613 73.0546 48.4234ZM66.4056 53.2157C65.5485 53.6634 64.7677 54.2568 63.8863 54.6455C63.2582 54.937 62.6474 55.2666 62.0262 55.5755C61.4051 55.8843 60.8325 56.1481 60.2425 56.45C58.8359 57.1695 57.4316 57.8924 56.0297 58.6189C55.2176 59.0388 54.4125 59.4691 53.6005 59.889C52.9753 60.1828 52.366 60.5095 51.7752 60.8676C51.6748 60.9311 51.5607 60.9696 51.4425 60.9799C51.3242 60.9901 51.2052 60.9719 51.0954 60.9267C50.9856 60.8815 50.8882 60.8106 50.8115 60.72C50.7347 60.6294 50.6808 60.5218 50.6543 60.4061C50.5358 59.919 50.4833 59.4183 50.4981 58.9173C50.4981 58.6119 50.4981 58.31 50.4981 58.0047C50.5398 56.9289 50.3906 55.8566 50.4704 54.7773C50.5467 53.7571 50.5294 52.7264 50.5675 51.7027C50.5918 50.9566 50.6786 50.2071 50.6716 49.461C50.6508 47.8265 50.8278 46.1955 50.8729 44.5645C50.852 44.3541 50.908 44.1434 51.0304 43.9711C51.1529 43.7989 51.3337 43.6768 51.5392 43.6275C51.7576 43.5814 51.9853 43.6185 52.1777 43.7316C53.6734 44.5159 55.2038 45.2412 56.6613 46.0914C57.7856 46.7507 58.9516 47.3302 60.0655 48.0069C60.7249 48.4095 61.4328 48.7392 62.1164 49.107C63.338 49.7733 64.5664 50.4743 65.7671 51.2238C66.1226 51.4394 66.426 51.7309 66.6555 52.0775C66.7252 52.1648 66.7746 52.2665 66.8 52.3753C66.8253 52.4841 66.8261 52.5971 66.8021 52.7062C66.7782 52.8153 66.7302 52.9177 66.6616 53.0059C66.593 53.094 66.5055 53.1657 66.4056 53.2157Z" fill="#FD976D" class="ali-icon-highlight" />
	<path d="M114.223 86.5417C113.223 85.9817 112.223 85.5417 111.223 85.0217C104.223 81.5917 104.713 82.3517 104.713 74.5017C104.713 58.2817 104.713 42.0617 104.713 25.8417C104.713 24.1617 104.713 22.4817 104.603 20.8417C104.57 19.7124 104.15 18.6287 103.412 17.7729C102.675 16.917 101.665 16.341 100.553 16.1417C99.1018 15.8089 97.6277 15.585 96.1431 15.4717C94.6531 15.3517 93.1431 15.3917 91.6631 15.3917C67.8131 15.5017 43.9431 15.0317 20.1031 16.0617C19.1731 16.0617 18.2331 16.0617 17.3031 16.1917C14.6631 16.5117 13.2231 17.8917 13.0031 20.4917C12.8331 22.3417 12.8731 24.2117 12.8731 26.0817C12.8731 42.0817 12.8731 58.115 12.8731 74.1817C12.8731 75.8517 12.8731 77.5317 12.8031 79.1817C12.8327 79.9333 12.641 80.677 12.2516 81.3205C11.8623 81.9641 11.2926 82.4791 10.6131 82.8017C8.79311 83.7417 6.94311 84.6117 5.13311 85.5817C3.79031 86.2228 2.50551 86.979 1.29311 87.8417C0.831789 88.2268 0.4742 88.7212 0.252937 89.2799C0.0316746 89.8385 -0.0462211 90.4437 0.0263536 91.0402C0.0989284 91.6367 0.319665 92.2056 0.668436 92.6949C1.01721 93.1842 1.48292 93.5785 2.02311 93.8417C2.86439 94.2287 3.76918 94.4591 4.69311 94.5217C6.36311 94.6417 8.04311 94.6117 9.69311 94.6117H63.4131C78.6998 94.6117 93.9898 94.6117 109.283 94.6117C110.96 94.6649 112.638 94.5239 114.283 94.1917C114.912 94.0116 115.484 93.6715 115.943 93.2046C116.402 92.7376 116.732 92.1599 116.901 91.5274C117.071 90.895 117.073 90.2296 116.909 89.5959C116.744 88.9623 116.418 88.382 115.963 87.9117C115.449 87.3766 114.864 86.9155 114.223 86.5417ZM59.9931 18.2717C60.3097 18.306 60.6026 18.4552 60.8165 18.6912C61.0303 18.9271 61.1501 19.2333 61.1531 19.5517C61.1327 19.9202 60.9797 20.2689 60.7225 20.5336C60.4652 20.7982 60.1209 20.9609 59.7531 20.9917C59.3862 20.9416 59.0494 20.7617 58.8036 20.4848C58.5578 20.2078 58.4193 19.852 58.4131 19.4817C58.4266 19.2941 58.4798 19.1115 58.5691 18.946C58.6583 18.7805 58.7817 18.6357 58.931 18.5214C59.0803 18.407 59.2522 18.3257 59.4353 18.2826C59.6184 18.2396 59.8085 18.2359 59.9931 18.2717ZM15.5031 25.2717C15.5647 24.71 15.8147 24.1858 16.2124 23.7845C16.6101 23.3832 17.132 23.1284 17.6931 23.0617C19.3631 22.9117 21.0431 22.8317 22.6931 22.8217C34.6331 22.8217 46.5731 22.8217 58.5131 22.8217C70.4431 22.8217 82.3831 22.8217 94.3231 22.8217C101.403 22.8217 101.523 22.9317 101.543 30.0117C101.603 44.5517 101.633 59.0984 101.633 73.6517C101.633 79.9017 101.363 80.1717 94.9131 80.1917C70.6664 80.2584 46.4198 80.3117 22.1731 80.3517C20.6832 80.3518 19.1944 80.2717 17.7131 80.1117C17.1537 80.0391 16.6348 79.7808 16.2396 79.3783C15.8443 78.9758 15.5956 78.4523 15.5331 77.8917C15.3814 76.5939 15.3046 75.2884 15.3031 73.9817C15.3031 59.0617 15.3031 44.1417 15.3031 29.2217C15.2982 27.9057 15.365 26.5904 15.5031 25.2817V25.2717ZM115.503 90.2017C114.879 90.6181 114.129 90.8022 113.383 90.7217C110.033 90.7217 106.673 90.6517 103.323 90.6517L74.8231 90.7117H58.9031V90.9617C52.1931 90.9617 45.4831 90.9617 38.7831 90.9617C30.6764 90.9617 22.5698 90.915 14.4631 90.8217C11.2931 90.8217 8.13311 90.6917 4.96311 90.5817C4.03651 90.5365 3.11424 90.4262 2.20311 90.2517C2.08244 90.1927 1.9777 90.1055 1.89766 89.9977C1.81762 89.8898 1.76462 89.7643 1.74311 89.6317C1.74117 89.4957 1.76878 89.3609 1.82403 89.2365C1.87928 89.1122 1.96085 89.0014 2.06311 88.9117C2.77371 88.4512 3.62135 88.2499 4.46311 88.3417C7.16311 88.2617 9.86644 88.2017 12.5731 88.1617C20.6731 88.0717 28.7831 87.9317 36.8831 87.9217C47.3131 87.9217 57.7431 88.0017 68.1731 88.0217C74.1731 88.0217 80.1031 88.0217 86.0631 88.0217C93.6131 88.0217 101.153 88.1217 108.703 88.1617C110.183 88.1617 111.703 88.0717 113.163 88.0117C113.909 87.9398 114.66 88.0639 115.343 88.3717C115.5 88.4628 115.632 88.5902 115.729 88.7431C115.826 88.8959 115.884 89.0699 115.9 89.2502C115.916 89.4306 115.888 89.612 115.819 89.7794C115.75 89.9467 115.641 90.0949 115.503 90.2117V90.2017Z" fill="#FD976D" class="ali-icon-highlight" />
	<path d="M50.4978 58.9174C50.483 59.4184 50.5355 59.9192 50.654 60.4062C50.6796 60.5225 50.7329 60.6309 50.8093 60.7224C50.8857 60.8138 50.9829 60.8855 51.0928 60.9314C51.2027 60.9773 51.3221 60.9962 51.4408 60.9863C51.5595 60.9764 51.6741 60.9381 51.7749 60.8747C52.3657 60.5166 52.975 60.1899 53.6002 59.896C54.4122 59.4762 55.2173 59.0458 56.0294 58.6259C57.4313 57.8972 58.8356 57.1719 60.2422 56.4501C60.8322 56.1482 61.4325 55.8706 62.0259 55.5756C62.6193 55.2807 63.2579 54.9371 63.886 54.6456C64.7674 54.2431 65.5482 53.6635 66.4053 53.2159C66.5047 53.1658 66.5916 53.0942 66.6598 53.0063C66.728 52.9184 66.7758 52.8165 66.7998 52.7078C66.8237 52.5992 66.8231 52.4866 66.7981 52.3782C66.7731 52.2698 66.7243 52.1683 66.6552 52.0811C66.4261 51.7332 66.1227 51.4405 65.7668 51.224C64.5731 50.4744 63.3377 49.7734 62.1057 49.1071C61.4117 48.7393 60.7176 48.4131 60.0548 48.0071C58.9409 47.313 57.7749 46.7508 56.6505 46.0915C55.193 45.2413 53.6627 44.516 52.167 43.7317C51.9746 43.6187 51.7469 43.5815 51.5285 43.6276C51.3197 43.6733 51.1349 43.7938 51.009 43.9665C50.883 44.1391 50.8246 44.3519 50.8448 44.5646C50.7997 46.1956 50.6228 47.8266 50.6436 49.4611C50.6436 50.2072 50.5638 50.9567 50.5395 51.7028C50.5013 52.7439 50.5186 53.7572 50.4423 54.7775C50.3625 55.8567 50.5117 56.929 50.4701 58.0048C50.4978 58.324 50.477 58.6121 50.4978 58.9174ZM52.0802 58.508C52.108 56.8457 52.056 55.187 52.1913 53.5247C52.2746 52.5045 52.2364 51.4773 52.2676 50.4501C52.3128 49.0134 52.3683 47.5767 52.4238 46.1401C52.4165 46.0789 52.4274 46.017 52.4552 45.962C52.483 45.9071 52.5264 45.8616 52.58 45.8312C53.621 46.2546 54.5996 46.8723 55.6233 47.4032C56.6471 47.9342 57.6083 48.4998 58.6008 49.0551C59.5933 49.6103 60.6309 50.1864 61.6442 50.7589C62.6575 51.3315 63.643 51.8 64.7119 52.4941C60.447 54.6005 56.3139 56.6653 52.2642 58.848C52.056 58.7925 52.0698 58.6364 52.0698 58.508H52.0802Z" fill="#1B1624"/>
	<path d="M115.343 88.3418C114.66 88.034 113.909 87.9099 113.163 87.9818C111.673 88.0418 110.163 88.1418 108.703 88.1318C101.153 88.1318 93.6133 88.0118 86.0633 87.9918C80.0633 87.9918 74.1333 87.9918 68.1733 87.9918C57.7433 87.9918 47.3133 87.8718 36.8833 87.8918C28.7833 87.8918 20.6733 88.0418 12.5733 88.1318C9.85993 88.1718 7.15659 88.2318 4.46326 88.3118C3.62151 88.22 2.77386 88.4214 2.06326 88.8818C1.961 88.9715 1.87943 89.0824 1.82418 89.2067C1.76893 89.331 1.74132 89.4658 1.74326 89.6018C1.76477 89.7344 1.81777 89.8599 1.89781 89.9678C1.97785 90.0757 2.0826 90.1628 2.20326 90.2218C3.11439 90.3963 4.03666 90.5066 4.96326 90.5518C8.13326 90.6618 11.2933 90.7618 14.4633 90.7918C22.5633 90.8585 30.6699 90.9051 38.7833 90.9318C45.4833 90.9318 52.1933 90.9318 58.9033 90.9318V90.6818H74.8233L103.323 90.6218C106.673 90.6218 110.033 90.6218 113.383 90.6918C114.129 90.7723 114.879 90.5883 115.503 90.1718C115.64 90.0549 115.746 89.9072 115.814 89.7409C115.882 89.5746 115.909 89.3946 115.893 89.2157C115.878 89.0368 115.82 88.8643 115.724 88.7123C115.628 88.5603 115.498 88.4333 115.343 88.3418Z" fill="#1B1624"/>
	<path d="M58.4434 19.4818C58.4495 19.8521 58.588 20.2079 58.8338 20.4849C59.0796 20.7619 59.4164 20.9417 59.7834 20.9918C60.1458 20.9542 60.4829 20.7886 60.734 20.5246C60.9852 20.2606 61.1339 19.9157 61.1534 19.5518C61.1495 19.2287 61.0256 18.9187 60.8055 18.682C60.5855 18.4454 60.2853 18.2991 59.9634 18.2718C59.7832 18.2452 59.5994 18.2559 59.4235 18.3033C59.2476 18.3506 59.0833 18.4336 58.9408 18.547C58.7983 18.6605 58.6806 18.802 58.595 18.9628C58.5095 19.1236 58.4578 19.3002 58.4434 19.4818Z" fill="#1B1624"/>
  </svg>