<svg xmlns="http://www.w3.org/2000/svg" width="110" height="110" viewBox="0 0 110 110" fill="none">
	<path d="M72.5595 43.5114C70.9033 44.1964 69.4801 45.3448 68.4606 46.8187C67.4411 48.2926 66.8686 50.0295 66.8119 51.8208C66.6189 53.465 66.8905 55.1303 67.5958 56.628C68.3011 58.1257 69.4119 59.3958 70.8023 60.2944C72.166 61.2884 73.7715 61.8981 75.4512 62.0599C77.1309 62.2216 78.8233 61.9295 80.3516 61.214C84.1614 59.4897 86.2716 56.5995 86.4276 52.3791C86.4728 51.7915 86.4728 51.2014 86.4276 50.6138C85.4915 44.1929 78.6273 40.7936 72.5595 43.5114Z" fill="#C9B1FB" class="ali-icon-highlight" />
	<path d="M94.7369 49.7682C95.3692 47.7729 94.8765 46.0076 93.0948 44.932C92.6146 44.6354 92.1613 44.2975 91.74 43.922C90.6151 43.9795 90.0978 43.5525 89.8926 42.3456C89.7612 41.3767 89.6052 40.416 89.4738 39.4471C89.3835 39.2501 89.2767 39.0694 89.1782 38.8806C88.3571 37.3616 87.224 36.3763 85.3766 36.7704C84.7469 36.9408 84.0815 36.9278 83.459 36.7329C82.8364 36.538 82.2824 36.1693 81.8623 35.6701C79.7111 33.2069 77.3382 32.7389 74.5957 34.693C74.164 34.9971 73.6642 35.1905 73.1402 35.2564C72.6163 35.3222 72.0841 35.2585 71.5906 35.0707C70.5971 34.7505 69.5707 34.5535 68.8317 34.3728C67.1896 34.537 65.884 34.9558 65.0301 36.015H65.5884C65.8717 36.1864 66.0825 36.4556 66.1808 36.7718C66.2791 37.088 66.2583 37.4292 66.1221 37.7311C66.0171 38.0747 65.8226 38.3843 65.5586 38.6282C65.2946 38.872 64.9705 39.0413 64.6196 39.1187C63.8366 39.2784 63.0295 39.2784 62.2466 39.1187C62.0167 39.2583 61.7868 39.3979 61.5323 39.521C60.9765 39.7438 60.4894 40.1094 60.1203 40.5809C59.7512 41.0523 59.5132 41.613 59.4303 42.206C59.3543 43.071 59.0969 43.9103 58.6749 44.6692L59.8573 44.7678C59.0362 45.4328 58.404 45.8105 57.9113 46.2868C57.4184 46.8055 56.9578 47.3539 56.5319 47.9289H56.2445C56.0927 48.4586 56.1515 49.0264 56.4087 49.5136C56.9283 50.5257 57.0765 51.6879 56.8275 52.798C57.1221 52.8039 57.4082 52.8983 57.6486 53.0689C57.5008 53.89 57.353 54.785 57.1805 55.7292C56.9506 55.7785 56.7125 55.8113 56.4744 55.8442C56.5584 55.9808 56.6576 56.1075 56.77 56.2219C57.3373 56.7704 57.7814 57.4333 58.0731 58.1666C58.3647 58.8999 58.497 59.6868 58.4614 60.4751C58.3892 61.2088 58.5907 61.9433 59.0272 62.5374C59.4637 63.1315 60.1044 63.5434 60.8261 63.6938C61.718 63.8899 62.5389 64.3273 63.1991 64.9582H63.3715C64.0872 65.0253 64.7492 65.3666 65.219 65.9107C65.5114 66.1218 65.7356 66.4139 65.864 66.7509C65.9924 67.088 66.0194 67.4552 65.9415 67.8074H65.7034C66.1017 68.4191 66.3385 69.1217 66.3916 69.8497C66.4447 70.5777 66.3125 71.3073 66.0072 71.9703C65.6377 72.9474 65.2354 73.9245 64.7838 74.8687C64.0448 76.4233 63.2839 77.9615 62.5012 79.4832H63.3879C63.1157 80.557 62.7015 81.5897 62.1563 82.5541C61.6997 82.6263 61.239 82.6702 60.7769 82.6855C60.079 83.9253 59.3646 85.1487 58.6092 86.3557C58.1166 87.1768 57.6486 87.924 57.2134 88.7286C57.1315 88.9011 57.0938 89.0912 57.1037 89.2818C57.1137 89.4724 57.171 89.6575 57.2704 89.8205C57.3698 89.9834 57.5082 90.1191 57.6731 90.2152C57.838 90.3112 58.0243 90.3647 58.2151 90.3708C58.7373 90.3276 59.2558 90.2481 59.7669 90.1327C62.846 89.443 63.0513 89.5005 64.6935 92.4728C65.0137 93.0475 65.2764 93.6551 65.5967 94.2299C65.9169 94.8047 66.3603 95.5929 66.7954 96.2416C67.0106 96.4925 67.3144 96.6506 67.6434 96.6828C67.9724 96.7149 68.3011 96.6186 68.5608 96.414C69.1294 95.8718 69.6589 95.2902 70.1455 94.6733C70.868 93.7373 71.5167 92.7437 72.231 91.7995C72.3378 91.6317 72.4871 91.4952 72.6638 91.4039C72.8404 91.3126 73.0382 91.2698 73.2368 91.2798C73.4354 91.2898 73.6278 91.3523 73.7944 91.4609C73.961 91.5695 74.0959 91.7203 74.1852 91.898C74.4972 92.3168 74.7271 92.8012 75.0063 93.22C76.0819 94.6815 76.944 94.624 78.0115 93.0311C78.4466 92.3743 78.8325 91.6681 79.2431 91.0112C80.8278 88.6301 81.2876 88.548 83.6113 90.0013C84.3913 90.4858 85.1549 91.003 85.9513 91.4628C86.2763 91.6814 86.66 91.796 87.0516 91.7913C87.3718 91.7502 87.8727 91.389 87.8727 91.1426C87.9083 90.4975 87.8362 89.8509 87.6592 89.2295C86.7806 85.7974 85.7871 82.3899 84.9825 78.9331C84.4488 76.6423 84.1614 74.294 83.7837 71.9539C83.776 71.8747 83.776 71.7949 83.7837 71.7158C83.4721 71.9836 83.0823 72.1434 82.6724 72.1716C82.2625 72.1997 81.8545 72.0945 81.5093 71.8718C80.7433 71.3684 79.9325 70.9368 79.0871 70.5827C78.8549 70.5352 78.6175 70.5187 78.3809 70.5334C78.427 72.2908 78.3529 74.0493 78.1592 75.7965C78 79.5279 77.3258 83.2194 76.1558 86.7662C75.8987 87.509 75.557 88.2198 75.1377 88.8846C75.0048 89.1527 74.7727 89.3584 74.4906 89.4581C74.2085 89.5577 73.8986 89.5435 73.6269 89.4184C73.3752 89.3318 73.1653 89.1536 73.039 88.9193C72.9127 88.685 72.8793 88.4117 72.9454 88.1539C73.0064 87.5696 73.1218 86.9924 73.2902 86.4296C74.0176 83.9876 74.5665 81.4958 74.9324 78.9741C75.3066 76.1744 75.4275 73.3466 75.2937 70.5252L72.9946 71.1246C71.7866 71.4449 70.516 71.4449 69.308 71.1246C68.8531 71.0499 68.4366 70.8243 68.1256 70.4841C68.0088 70.366 67.9268 70.2179 67.8886 70.0562C67.8505 69.8945 67.8577 69.7254 67.9095 69.5675C67.9613 69.4097 68.0556 69.2691 68.1821 69.1614C68.3086 69.0537 68.4623 68.9829 68.6265 68.9569C68.6892 68.9497 68.7526 68.9497 68.8153 68.9569C71.0322 69.1129 73.0603 68.3739 75.1048 67.6842C76.6785 67.1535 78.3947 67.2386 79.9082 67.9223C80.8936 68.4255 81.908 68.8697 82.9462 69.2525C83.279 69.3483 83.5753 69.542 83.7964 69.8086C84.0176 70.0751 84.1533 70.4021 84.186 70.7469C84.3314 70.6123 84.5099 70.5188 84.7033 70.4759C87.0516 69.9833 88.2586 68.3822 88.9647 66.272C89.1794 65.6174 89.5259 65.0138 89.9829 64.4984C90.1072 64.3289 90.2567 64.1794 90.4263 64.055C90.7301 63.7751 91.06 63.5249 91.4116 63.3078C91.9698 62.9631 92.4948 62.5673 92.9798 62.1255C94.7369 60.4833 95.2542 58.915 94.1211 56.8459C93.625 56.0767 93.353 55.1845 93.3356 54.2694C93.3182 53.3543 93.5561 52.4524 94.0226 51.6649C94.3235 51.0581 94.5628 50.4227 94.7369 49.7682ZM89.17 53.3891C88.6527 59.8757 83.2336 65.1963 76.4842 64.7447C69.2997 64.8351 63.5686 57.9626 64.0776 51.435C64.6524 43.9959 70.1865 39.4389 76.632 39.5867C85.9678 39.8002 89.6052 47.9289 89.17 53.3891Z" fill="#C9B1FB" class="ali-icon-highlight" />
	<path d="M0.0988013 80.6492C0.148066 81.9465 0.632506 82.3981 1.93803 82.4309C3.84295 82.4966 5.75881 82.5322 7.68563 82.5377C10.6251 82.5377 13.5728 82.5377 16.5205 82.5377L43.879 82.6855C48.2144 82.6855 52.5415 82.6855 56.8768 82.6855C58.1741 82.6855 59.4797 82.7512 60.7934 82.6855C61.2555 82.6702 61.7162 82.6263 62.1728 82.5541C62.6967 81.592 63.0915 80.565 63.347 79.4997H62.4602C59.1759 79.4997 56.1378 79.4997 53.0834 79.4997H43.0333H32.9997H22.9578C19.6078 79.4997 16.266 79.4997 12.9159 79.5982C9.16358 79.7296 4.12212 79.6803 2.86586 79.3272C2.81659 76.3549 2.74269 73.3415 2.74269 70.2953C2.74269 67.2491 2.81659 64.2603 2.83301 61.2634C2.84944 58.2664 2.83301 55.2284 2.83301 52.2314C2.83301 49.2345 2.83301 46.1965 2.83301 43.1995C2.83301 40.2025 2.79196 37.1645 2.77554 34.1676C2.75912 31.1706 2.72627 28.1326 2.77554 25.1356C2.8248 22.1387 2.40605 19.1663 2.77554 16.0216C6.47863 15.7917 10.075 16.0955 13.6631 16.0216C17.2513 15.9477 20.8476 15.9313 24.4358 15.9395C28.0239 15.9477 31.612 16.0298 35.192 16.0544C38.7719 16.0791 42.4011 16.0544 46.0057 16.0544C49.6102 16.0544 53.223 16.0544 56.8358 16.0544C60.4485 16.0544 64.0367 16.0544 67.633 16.0544C71.2294 16.0544 74.8339 16.0544 78.4385 16.1448C82.0431 16.2351 85.5984 15.997 89.1126 16.2187C89.4646 16.9332 89.5879 17.7388 89.4657 18.5259C89.3877 20.011 89.3877 21.4993 89.4657 22.9844C89.3754 27.3115 89.3918 31.6386 89.3097 35.9657C89.308 37.1282 89.3931 38.2891 89.5642 39.4389C89.6956 40.4078 89.8516 41.3685 89.983 42.3374C90.1472 43.5444 90.7055 43.9795 91.8304 43.9139C92.0836 43.8971 92.3358 43.8669 92.5858 43.8235C92.8814 42.7479 92.5858 41.6312 92.5858 40.5392C92.6433 37.2549 92.5858 33.9705 92.5858 30.6862C92.5858 27.7303 92.5037 24.7826 92.5858 21.8267C92.6269 19.6754 92.5283 17.5078 92.3641 15.3565C92.2409 13.78 91.4855 13.0657 89.9665 13.0328C86.8875 12.9589 83.8002 13.0328 80.7211 13.0328C80.4091 13.0328 80.0396 12.9589 79.8097 13.271C79.4402 13.78 79.1282 13.739 78.7423 13.271C78.6502 13.1813 78.5383 13.1145 78.4156 13.076C78.293 13.0375 78.163 13.0284 78.0362 13.0493C77.1166 13.2792 76.2216 12.9672 75.3184 13.0082C71.4511 13.1889 67.5756 13.0739 63.7082 13.0739H45.8086C41.2187 13.0739 36.6289 13.0246 32.039 13.0739C31.0291 13.0739 29.9206 12.8768 28.9764 13.5255C28.8368 13.6158 28.5083 13.6733 28.4509 13.5994C27.7529 12.7783 26.8662 13.2627 26.0533 13.2053C21.9479 12.9343 17.8424 13.2053 13.6713 13.156C10.0586 13.0985 6.454 13.2135 2.84122 13.2299C0.657139 13.2299 0.295862 13.5419 0.197332 15.6932C0.197332 16.153 0.197332 16.6128 0.197332 17.0726C0.197332 20.4144 0.197332 23.7644 0.197332 27.1062C0.197332 31.6386 0.115223 36.1382 0.115223 40.687C0.115223 46.4346 0.156278 52.2397 0.115223 58.0119C0.115223 63.2668 0.0331144 68.5135 0.0249035 73.7685C-0.0325724 76.0593 0.0166928 78.3584 0.0988013 80.6492Z" fill="black"/>
	<path d="M89.1702 53.3892C89.6054 47.929 85.9516 39.8002 76.6323 39.5867C70.1867 39.4389 64.6526 43.996 64.0779 51.435C63.5688 58.0037 69.3 64.8351 76.4845 64.7448C83.2338 65.1964 88.6529 59.8757 89.1702 53.3892ZM80.36 61.2141C78.8317 61.9296 77.1394 62.2218 75.4596 62.06C73.7799 61.8982 72.1744 61.2885 70.8108 60.2945C69.4204 59.396 68.3095 58.1259 67.6042 56.6281C66.8989 55.1304 66.6273 53.4651 66.8203 51.8209C66.877 50.0296 67.4495 48.2928 68.469 46.8188C69.4886 45.3449 70.9118 44.1965 72.5679 43.5115C78.6357 40.7937 85.5 44.1848 86.4278 50.6139C86.4731 51.2015 86.4731 51.7917 86.4278 52.3792C86.28 56.5996 84.1698 59.4898 80.36 61.2141Z" fill="black"/>
	<path d="M59.2663 34.2496C58.0798 34.2464 56.9074 34.5072 55.8342 35.0132C54.7509 35.4741 53.7073 36.0233 52.714 36.6554C52.4069 36.909 52.0308 37.0649 51.6342 37.103C51.2376 37.141 50.8387 37.0595 50.4889 36.8688C50.1077 36.625 49.7647 36.3261 49.4708 35.9821C47.648 34.0032 45.4639 33.7077 43.0006 34.4959C41.6198 34.9332 40.277 35.4825 38.9855 36.1381C38.4732 36.4345 37.881 36.563 37.2919 36.5056C36.7028 36.4481 36.1465 36.2076 35.7012 35.8178C35.1346 35.3745 34.5188 34.9968 33.9112 34.6026C33.1352 34.0497 32.2358 33.6948 31.2913 33.5689C30.3468 33.4429 29.3858 33.5498 28.492 33.8801C27.3537 34.2353 26.2535 34.7028 25.2077 35.2759C23.7298 36.097 22.2846 36.2448 20.8724 34.9557C20.3552 34.494 19.7395 34.1564 19.0722 33.9686C18.4049 33.7808 17.7035 33.7477 17.0215 33.8719C16.5781 33.9376 16.2004 34.1346 15.7078 34.2167C13.9879 34.6338 12.4218 35.5307 11.1918 36.8031C11.0044 36.9868 10.849 37.2005 10.732 37.4354C10.5861 37.6925 10.5236 37.9885 10.553 38.2826C10.5824 38.5767 10.7023 38.8544 10.8962 39.0776C11.0637 39.2397 11.28 39.3421 11.5116 39.3688C11.7431 39.3955 11.9771 39.3451 12.1771 39.2254C12.8265 38.9172 13.4547 38.5661 14.0574 38.1744C15.5435 37.1973 17.0461 36.5322 18.8361 37.419C19.1481 37.575 19.5176 37.419 19.8542 37.8131C20.4829 38.6205 21.3904 39.164 22.3989 39.3372C23.4074 39.5104 24.4443 39.3006 25.3062 38.7491C26.1848 38.2975 27.0387 37.8131 27.8844 37.3122C28.6618 36.8041 29.5884 36.5746 30.513 36.6611C31.4376 36.7476 32.3056 37.145 32.9752 37.7885C33.5774 38.293 34.217 38.7514 34.8883 39.1597C35.4399 39.5187 36.0666 39.7462 36.7201 39.8245C37.3736 39.9028 38.0363 39.8298 38.6571 39.6113C39.7211 39.2982 40.7612 38.9085 41.769 38.4453C42.5132 38.0336 43.2904 37.6848 44.0927 37.4025C44.6167 37.1968 45.1905 37.1534 45.7396 37.2778C46.2886 37.4023 46.7876 37.6889 47.1717 38.1005C47.5823 38.5274 48.0585 38.9215 48.4772 39.291C49.1047 39.9779 49.9508 40.426 50.8714 40.5593C51.7921 40.6925 52.7305 40.5026 53.5269 40.0218C54.5779 39.4881 55.5714 38.8477 56.5896 38.2565C58.0429 37.4354 59.4141 36.9756 60.851 38.4207C61.2204 38.7797 61.68 39.0322 62.1812 39.1515C62.9641 39.3111 63.7712 39.3111 64.5541 39.1515C64.9109 39.0746 65.2404 38.9028 65.5078 38.6542C65.7751 38.4056 65.9704 38.0895 66.0731 37.7392C66.2239 37.4366 66.2561 37.0886 66.1634 36.7635C66.0708 36.4384 65.8599 36.1597 65.5722 35.9821H65.0139C63.5113 35.9821 63.3717 35.9 61.7296 34.9311C60.9871 34.481 60.1345 34.2451 59.2663 34.2496Z" fill="black"/>
	<path d="M55.1361 44.6035C52.6729 44.6774 50.1603 44.8088 47.6642 44.817C39.4041 44.817 31.144 44.9867 22.8839 45.326C22.1613 45.326 21.4388 45.3753 20.7245 45.4328C20.3224 45.4259 19.9336 45.5761 19.6406 45.8515C19.4455 46.0327 19.3045 46.2646 19.2335 46.5212C19.1624 46.7778 19.1641 47.0491 19.2383 47.3049C19.7898 47.7728 20.5043 48.003 21.2253 47.9453C22.0464 48.0028 22.8018 48.0356 23.59 48.0356L50.9404 47.9699H56.4991C56.925 47.3949 57.3857 46.8465 57.8785 46.3278C58.3712 45.8515 58.9624 45.5067 59.8245 44.8088L58.6422 44.7102C57.4762 44.6118 56.3059 44.5762 55.1361 44.6035Z" fill="black"/>
	<path d="M83.8084 71.7487C83.925 71.6401 84.0222 71.5124 84.0958 71.371C84.1979 71.1621 84.2406 70.9292 84.2189 70.6977C84.1863 70.3529 84.0505 70.0259 83.8294 69.7594C83.6082 69.4929 83.3119 69.2991 82.9791 69.2033C81.941 68.8205 80.9265 68.3764 79.9411 67.8732C78.4276 67.1894 76.7114 67.1044 75.1377 67.6351C73.0932 68.3248 71.0323 69.0637 68.8482 68.9077C68.7855 68.9005 68.7221 68.9005 68.6594 68.9077C68.4953 68.9337 68.3415 69.0045 68.215 69.1122C68.0885 69.2199 67.9942 69.3605 67.9424 69.5183C67.8907 69.6762 67.8834 69.8453 67.9216 70.007C67.9597 70.1688 68.0417 70.3168 68.1585 70.4349C68.4695 70.7751 68.886 71.0007 69.3409 71.0754C70.5489 71.3957 71.8195 71.3957 73.0275 71.0754L75.3266 70.476C75.4678 73.3079 75.3524 76.1467 74.9817 78.9578C74.6158 81.4795 74.067 83.9712 73.3396 86.4133C73.1712 86.976 73.0557 87.5533 72.9947 88.1375C72.9286 88.3954 72.9621 88.6686 73.0884 88.903C73.2146 89.1373 73.4245 89.3154 73.6762 89.402C73.948 89.5272 74.2578 89.5414 74.5399 89.4418C74.822 89.3421 75.0541 89.1364 75.187 88.8683C75.6064 88.2035 75.948 87.4927 76.2051 86.7499C77.3751 83.2031 78.0493 79.5116 78.2086 75.7802C78.4023 74.0329 78.4763 72.2744 78.4303 70.5171C78.6668 70.5023 78.9042 70.5189 79.1364 70.5663C79.9818 70.9205 80.7926 71.352 81.5586 71.8554C81.8963 72.0791 82.2964 72.1894 82.701 72.1702C83.1055 72.151 83.4934 72.0033 83.8084 71.7487Z" fill="black"/>
	<path d="M53.4364 55.9838C54.4286 56.0021 55.421 55.9637 56.4087 55.8689C56.6469 55.8689 56.885 55.8032 57.1149 55.7539C57.2873 54.8097 57.4351 53.9311 57.5829 53.0936C57.3426 52.923 57.0565 52.8286 56.7618 52.8226H56.4087C54.9062 52.8226 53.3954 52.9047 51.8928 52.9212C46.5147 52.9868 41.1366 53.0033 35.7667 53.11C32.8847 53.1675 30.0191 53.3563 27.1206 53.4795C26.7266 53.4678 26.3362 53.5583 25.9875 53.7422C25.812 53.8339 25.665 53.9719 25.5624 54.1413C25.4598 54.3107 25.4055 54.5049 25.4055 54.7029C25.4055 54.9009 25.4598 55.0952 25.5624 55.2645C25.665 55.4339 25.812 55.5719 25.9875 55.6636C26.456 55.9068 26.979 56.0256 27.5066 56.0084C32.0964 56.1234 36.6781 56.1973 41.2597 56.107C45.3159 56.0167 49.3803 56.0002 53.4364 55.9838Z" fill="black"/>
	<path d="M35.9639 68.0784C36.685 68.0494 37.4008 67.9421 38.0987 67.7582C38.3905 67.7 38.6521 67.5401 38.8371 67.3071C39.022 67.074 39.1182 66.7829 39.1086 66.4855C39.1117 66.2217 39.0247 65.9649 38.862 65.7573C38.6992 65.5498 38.4705 65.404 38.2136 65.3442C37.461 65.1022 36.6718 64.9938 35.8817 65.0239C29.6661 65.0239 23.4423 64.9336 17.2185 64.9254C14.9277 64.9254 12.6368 65.0322 10.346 65.1143C9.8501 65.0756 9.35747 65.2221 8.96321 65.5254C8.56896 65.8286 8.30104 66.2672 8.21118 66.7564C8.39015 67.0794 8.65952 67.3432 8.98624 67.5153C9.31295 67.6874 9.68281 67.7604 10.0504 67.7253C12.604 67.8238 15.1576 67.9799 17.7111 68.0373C20.7081 68.1112 23.7215 68.1276 26.7431 68.1441C29.7647 68.1605 32.8848 68.1194 35.9639 68.0784Z" fill="black"/>
	<path d="M90.3853 82.6855C91.7729 82.6198 92.2738 82.0943 92.4544 80.7806C92.5734 79.9371 92.6392 79.087 92.6515 78.2352C92.709 73.5879 92.3231 68.9406 92.6515 64.2768C92.6361 64.0263 92.592 63.7783 92.5201 63.5378C91.8068 63.4456 91.0837 63.6053 90.4756 63.9894C90.3061 64.1137 90.1565 64.2633 90.0322 64.4328C89.8492 64.6834 89.7053 64.9602 89.6053 65.2539C89.3945 65.9446 89.3138 66.6685 89.3671 67.3887C89.3671 69.4086 89.441 71.4284 89.4246 73.4401C89.4082 75.4518 89.3097 77.2335 89.2522 79.0974C88.1027 79.8528 86.8382 79.278 85.7051 79.6557C85.6067 80.663 85.8685 81.6725 86.4441 82.5049C87.766 82.6116 89.0798 82.784 90.3853 82.6855Z" fill="black"/>
	<path d="M65.0221 24.9057C66.0648 25.0125 67.1076 25.0946 68.3064 25.1931C72.067 24.8893 75.9425 24.8236 79.8016 24.6841C80.8444 24.6841 81.8871 24.487 82.9299 24.3885C83.2547 24.3514 83.5609 24.2184 83.8096 24.0063C84.0583 23.7942 84.238 23.5127 84.3258 23.1979C84.3792 22.8735 84.338 22.5406 84.2069 22.2391C84.0758 21.9376 83.8605 21.6804 83.5868 21.4982C83.1793 21.29 82.7193 21.2071 82.2648 21.2601C78.9805 21.178 75.6962 21.4326 72.4118 21.6132C70.1867 21.7446 67.9615 21.8595 65.7364 21.9745C65.146 21.9788 64.5635 22.1104 64.0286 22.3604C63.8126 22.4419 63.6252 22.5848 63.4895 22.7716C63.3538 22.9584 63.2757 23.1808 63.2649 23.4114C63.2542 23.6812 63.3275 23.9477 63.4745 24.1741C63.6216 24.4006 63.8352 24.5759 64.086 24.6758C64.3845 24.7997 64.7002 24.8773 65.0221 24.9057Z" fill="black"/>
	<path d="M65.6624 67.8484H65.9005C65.9784 67.4962 65.9515 67.129 65.8231 66.7919C65.6947 66.4549 65.4704 66.1628 65.178 65.9517C64.7083 65.4076 64.0462 65.0663 63.3305 64.9992H63.1581C60.4732 64.9992 57.7882 64.9171 55.1033 64.9089C53.7977 64.9089 52.484 64.9664 51.1785 65.0157C50.6523 65.0141 50.1337 65.141 49.6677 65.3852C49.4575 65.4821 49.2789 65.6363 49.1524 65.8301C49.0258 66.0238 48.9564 66.2494 48.9521 66.4808C48.9478 66.7122 49.0088 66.9401 49.1281 67.1384C49.2474 67.3367 49.4202 67.4974 49.6266 67.6021C49.9638 67.7984 50.3338 67.9319 50.7187 67.9962C51.1711 68.0772 51.6304 68.113 52.0899 68.103C55.2264 68.103 58.363 68.103 61.4995 68.0537C62.8461 68.0044 64.2009 67.9223 65.6624 67.8484Z" fill="black"/>
	<path d="M21.4553 70.3363C18.992 70.6401 16.5288 70.4759 13.9998 70.5334C13.1788 70.5334 12.4316 70.5991 11.6515 70.6976C11.1324 70.7551 10.6239 70.885 10.1407 71.0835C9.89464 71.1854 9.6885 71.3648 9.55364 71.5945C9.41879 71.8242 9.36258 72.0916 9.39356 72.3562C9.41211 72.5891 9.50776 72.8092 9.66538 72.9817C9.823 73.1542 10.0336 73.2692 10.2639 73.3086C10.8991 73.4572 11.5438 73.5614 12.1935 73.6207C15.3382 73.7849 18.4583 73.2594 21.5949 73.1198C21.8424 73.1342 22.0902 73.099 22.324 73.0164C22.5577 72.9338 22.7727 72.8054 22.9562 72.6387C23.1397 72.472 23.2881 72.2704 23.3927 72.0457C23.4973 71.8209 23.5561 71.5776 23.5655 71.3298C23.3714 70.9557 23.0597 70.6558 22.6784 70.4762C22.2971 70.2967 21.8673 70.2475 21.4553 70.3363Z" fill="black"/>
	<path d="M49.4377 73.1527C49.7482 73.2591 50.071 73.3253 50.3983 73.3497C52.5583 73.4762 54.7256 73.3383 56.8521 72.9392C57.2426 72.8722 57.5925 72.6576 57.8292 72.3398C57.9607 72.2159 58.0574 72.0596 58.1097 71.8867C58.1621 71.7137 58.1682 71.5301 58.1275 71.354C58.0868 71.1779 58.0007 71.0156 57.8778 70.8832C57.7549 70.7507 57.5994 70.6528 57.4268 70.5991C56.9871 70.4663 56.5313 70.3944 56.072 70.3856C55.2509 70.3856 54.5038 70.3856 53.7155 70.3856V70.4677C52.7959 70.4677 51.8763 70.4677 50.9649 70.4677C50.4422 70.503 49.9262 70.6051 49.4295 70.7715C48.9204 70.9275 48.4524 71.2149 48.4277 71.8389C48.4349 72.1367 48.5367 72.4245 48.7182 72.6607C48.8998 72.8968 49.1517 73.0691 49.4377 73.1527Z" fill="black"/>
  </svg>