<?xml version="1.0" encoding="UTF-8" standalone="no"?>
<!-- Created with Inkscape (http://www.inkscape.org/) -->

<svg
   xmlns:dc="http://purl.org/dc/elements/1.1/"
   xmlns:cc="http://creativecommons.org/ns#"
   xmlns:rdf="http://www.w3.org/1999/02/22-rdf-syntax-ns#"
   xmlns:svg="http://www.w3.org/2000/svg"
   xmlns="http://www.w3.org/2000/svg"
   version="1.1"
   width="534.71875"
   height="223.4375"
   id="svg4510">
  <defs
     id="defs4512" />
  <g
     transform="translate(-91.212054,-400.64343)"
     id="layer1">
    <path
       d="m 145.58705,401.64343 c -29.50723,0 -53.374996,23.87416 -53.374996,53.34375 l 0,72.03125 c 0,29.44145 23.867766,53.28125 53.374996,53.28125 l 72.75,0 c 29.42598,0 53.28125,-23.8398 53.28125,-53.28125 0,-29.50693 -23.85527,-53.46875 -53.28125,-53.46875 l -83.34375,0 0,34.8125 83.34375,0 c 10.25621,0 18.53125,8.32113 18.53125,18.65625 0,10.30789 -8.27504,18.53125 -18.53125,18.53125 l -72.75,0 c -10.29265,0 -18.6875,-8.22336 -18.6875,-18.53125 l 0,-72.03125 c 0,-10.3355 8.39485,-18.65625 18.6875,-18.65625 l 115.8125,0 c 10.27771,0 18.71875,8.32075 18.71875,18.65625 l 0,125.3125 34.625,0 0,-125.3125 c 0,-10.3355 8.35719,-18.65625 18.65625,-18.65625 10.25644,0 18.5625,8.32075 18.5625,18.65625 l 0,125.3125 34.8125,0 0,-125.3125 c 0,-10.3355 8.29469,-18.65625 18.59375,-18.65625 10.31619,0 18.65625,8.32075 18.65625,18.65625 l 0,72.03125 c 0,29.44145 23.85138,53.28125 53.34375,53.28125 l 93.5625,0 c 29.52632,0 53.40625,-23.8398 53.40625,-53.28125 0,-13.96034 -5.34454,-26.55898 -14.03125,-36.0625 8.68671,-9.51016 14.03125,-22.03655 14.03125,-35.96875 0,-29.46959 -23.87993,-53.34375 -53.40625,-53.34375 l -104.125,0 0,34.6875 104.125,0 c 10.29891,0 18.65625,8.32075 18.65625,18.65625 0,10.29227 -8.35734,18.5625 -18.65625,18.5625 l -104.125,0 0,34.8125 104.125,0 c 10.29891,0 18.65625,8.32113 18.65625,18.65625 0,10.30789 -8.35734,18.53125 -18.65625,18.53125 l -93.5625,0 c -10.32049,0 -18.59375,-8.22336 -18.59375,-18.53125 l 0,-72.03125 c 0,-29.46959 -23.98027,-53.34375 -53.40625,-53.34375 -13.84265,0 -26.52928,5.32037 -35.96875,13.96875 -9.45863,-8.64838 -22.16376,-13.96875 -36,-13.96875 -13.85752,0 -26.48628,5.32037 -35.96875,13.96875 -9.51212,-8.64838 -22.13533,-13.96875 -36.03125,-13.96875 l -115.8125,0 z m 32.90625,192.03125 -2.78125,5.125 3.09375,0 5.96875,-5.125 -6.28125,0 z m -71.46875,6.375 c -1.19976,0 -2.28677,0.0547 -3.28125,0.1875 -0.99425,0.14779 -2.01695,0.42278 -3.0625,0.84375 -1.039366,0.41274 -2.046746,1.02556 -3.062496,1.8125 -1.2319,0.9517 -2.15325,2.19636 -2.75,3.78125 -0.59645,1.57576 -0.90625,3.19919 -0.90625,4.84375 0,2.54934 0.59294,4.6923 1.75,6.4375 1.15479,1.75343 2.69398,3.04317 4.624996,3.875 1.9289,0.83348 4.03505,1.25 6.3125,1.25 1.12695,0 2.19447,-0.0615 3.21875,-0.1875 1.01598,-0.12448 2.03807,-0.29361 3.0625,-0.53125 0.61176,-0.1539 1.09015,-0.27843 1.40625,-0.375 0.32553,-0.0958 0.65372,-0.22606 1,-0.34375 0.35284,-0.11769 0.75585,-0.25342 1.25,-0.4375 l 0,-10.78125 -8.96875,0 0,4.53125 3.03125,0 0,2.59375 c -0.96445,0.22859 -1.88815,0.34375 -2.75,0.34375 -1.50334,0 -2.78318,-0.29334 -3.84375,-0.875 -1.06728,-0.57517 -1.87589,-1.32947 -2.40625,-2.28125 -0.5244,-0.95774 -0.78125,-1.99827 -0.78125,-3.125 0,-0.96445 0.23183,-1.94417 0.6875,-2.96875 0.46623,-1.03046 1.26566,-1.91164 2.4375,-2.65625 1.17192,-0.73586 2.73513,-1.125 4.6875,-1.125 1.70235,0 3.11437,0.19391 4.25,0.59375 1.13329,0.40407 2.203,0.90325 3.21875,1.5 l 0,-5.3125 c -1.53321,-0.47928 -2.92922,-0.85524 -4.21875,-1.15625 -1.28305,-0.29498 -2.92386,-0.4375 -4.90625,-0.4375 z m 219.75,0 c -1.75365,0 -3.24764,0.2941 -4.46875,0.875 -1.21681,0.58385 -2.1303,1.36413 -2.71875,2.34375 -0.59682,0.97939 -0.875,2.06656 -0.875,3.28125 0,1.25309 0.28655,2.32863 0.875,3.25 0.59003,0.92205 1.34675,1.70066 2.28125,2.3125 0.92824,0.61168 2.02029,1.16619 3.25,1.6875 1.097,0.44254 1.92438,0.86783 2.5,1.28125 0.57283,0.41259 0.875,0.92771 0.875,1.53125 0,0.33979 -0.19327,0.68001 -0.53125,1.0625 -0.33798,0.38325 -1.062,0.5625 -2.21875,0.5625 -1.2448,0 -2.40941,-0.23183 -3.5,-0.6875 -1.09074,-0.47287 -2.2168,-1.05065 -3.34375,-1.75 l 0,5.5 c 1.19968,0.5241 2.35666,0.9449 3.46875,1.21875 1.12047,0.27159 2.00928,0.4084 2.6875,0.46875 0.67151,0.0596 1.26308,0.0937 1.71875,0.0937 1.66599,0 3.12524,-0.26705 4.40625,-0.8125 1.28304,-0.5367 2.2833,-1.31925 3,-2.34375 0.71436,-1.02435 1.09375,-2.24933 1.09375,-3.65625 0,-1.25136 -0.31629,-2.31824 -0.90625,-3.15625 -0.59026,-0.84676 -1.40025,-1.56844 -2.4375,-2.21875 -1.0328,-0.64767 -2.40137,-1.37665 -4.125,-2.1875 -0.95812,-0.46389 -1.6326,-0.86461 -2,-1.1875 -0.37646,-0.32508 -0.5625,-0.7134 -0.5625,-1.15625 0,-0.47038 0.18001,-0.86461 0.5625,-1.1875 0.37646,-0.32516 0.97411,-0.46875 1.8125,-0.46875 1.28304,0 2.50446,0.25693 3.625,0.78125 1.12711,0.51504 2.11817,1.09592 3.03125,1.75 l 0,-5.28125 c -0.25673,-0.17729 -0.71595,-0.41472 -1.40625,-0.71875 -0.69286,-0.30803 -1.56436,-0.60234 -2.625,-0.84375 -1.06072,-0.24443 -2.21558,-0.34375 -3.46875,-0.34375 z m 192.34375,0 c -1.75358,0 -3.24553,0.2941 -4.46875,0.875 -1.21681,0.58385 -2.12879,1.36413 -2.71875,2.34375 -0.59667,0.97939 -0.875,2.06656 -0.875,3.28125 0,1.25309 0.28504,2.32863 0.875,3.25 0.58807,0.92205 1.34464,1.70066 2.28125,2.3125 0.92832,0.61168 2.02037,1.16619 3.25,1.6875 1.09919,0.44254 1.92664,0.86783 2.5,1.28125 0.57517,0.41259 0.875,0.92771 0.875,1.53125 0,0.33979 -0.16202,0.68001 -0.5,1.0625 -0.34002,0.38325 -1.09309,0.5625 -2.25,0.5625 -1.24464,0 -2.41145,-0.23183 -3.5,-0.6875 -1.09059,-0.47287 -2.21672,-1.05065 -3.34375,-1.75 l 0,5.5 c 1.20179,0.5241 2.35688,0.9449 3.46875,1.21875 1.12069,0.27159 2.00928,0.4084 2.6875,0.46875 0.6694,0.0596 1.26082,0.0937 1.71875,0.0937 1.66373,0 3.12321,-0.26705 4.40625,-0.8125 1.28101,-0.5367 2.28556,-1.31925 3,-2.34375 0.71429,-1.02435 1.09375,-2.24933 1.09375,-3.65625 0,-1.25136 -0.31629,-2.31824 -0.90625,-3.15625 -0.588,-0.84676 -1.39813,-1.56844 -2.4375,-2.21875 -1.03077,-0.64767 -2.40137,-1.37665 -4.125,-2.1875 -0.95812,-0.46389 -1.63184,-0.86461 -2,-1.1875 -0.37419,-0.32508 -0.5625,-0.7134 -0.5625,-1.15625 0,-0.47038 0.18001,-0.86461 0.5625,-1.1875 0.37646,-0.32516 1.00332,-0.46875 1.84375,-0.46875 1.28101,0 2.47524,0.25693 3.59375,0.78125 1.12907,0.51504 2.1492,1.09592 3.0625,1.75 l 0,-5.28125 c -0.25884,-0.17729 -0.74494,-0.41472 -1.4375,-0.71875 -0.69301,-0.30803 -1.56428,-0.60234 -2.625,-0.84375 -1.06087,-0.24443 -2.21769,-0.34375 -3.46875,-0.34375 z m -390.375,0.28125 -9.9375,22.46875 6.9375,0 1.84375,-4.5625 9.75,0 1.84375,4.5625 6.9375,0 -9.90625,-22.46875 -7.46875,0 z m 20.375,0 0,22.46875 17.0625,0 0,-5.4375 -10.28125,0 0,-17.03125 -6.78125,0 z m 20.96875,0 0,22.46875 16.9375,0 0,-4.5625 -10.15625,0 0,-4.75 9.4375,0 0,-4.5625 -9.4375,0 0,-4.0625 9.875,0 0,-4.53125 -16.65625,0 z m 21.46875,0 0,22.46875 6.78125,0 0,-8.71875 0.78125,0 c 0.77207,0 1.38312,0.0972 1.875,0.28125 0.49384,0.18996 1.00919,0.60981 1.53125,1.28125 0.5155,0.67777 1.10195,1.73773 1.75,3.1875 l 1.78125,3.96875 7.25,0 -2.25,-4.875 c -0.80406,-1.75395 -1.4675,-2.92513 -1.9375,-3.5 -0.47272,-0.58181 -1.06078,-1.0813 -1.78125,-1.5 0.60308,-0.32546 1.13764,-0.64693 1.625,-1 0.48562,-0.36122 0.97246,-0.9297 1.40625,-1.71875 0.43379,-0.78068 0.65625,-1.73929 0.65625,-2.875 0,-0.97298 -0.28893,-2.01168 -0.8125,-3.09375 -0.52183,-1.08441 -1.3758,-2.02245 -2.5625,-2.78125 -1.19342,-0.75321 -2.70625,-1.125 -4.5625,-1.125 l -11.53125,0 z m 24.8125,0 0,22.46875 6.78125,0 0,-22.46875 -6.78125,0 z m 19.75,0 -9.9375,22.46875 6.9375,0 1.875,-4.5625 9.75,0 1.84375,4.5625 6.90625,0 -9.875,-22.46875 -7.5,0 z m 30.21875,0 0,22.46875 6.53125,0 0,-13.03125 6.15625,7.53125 0.53125,0 6.125,-7.53125 0,13.03125 6.78125,0 0,-22.46875 -6.15625,0 -6.9375,8.4375 -6.90625,-8.4375 -6.125,0 z m 31.78125,0 0,22.46875 16.9375,0 0,-4.5625 -10.15625,0 0,-4.75 9.4375,0 0,-4.5625 -9.4375,0 0,-4.0625 9.875,0 0,-4.53125 -16.65625,0 z m 40.0625,0 0,5.46875 8.25,0 0,17 6.78125,0 0,-17 8.21875,0 0,-5.46875 -23.25,0 z m 31.59375,0 -9.9375,22.46875 6.9375,0 1.875,-4.5625 9.75,0 1.84375,4.5625 6.90625,0 -9.875,-22.46875 -7.5,0 z m 30.21875,0 0,22.46875 13,0 c 2.37175,0 4.20535,-0.58661 5.53125,-1.75 1.31707,-1.15691 1.96875,-2.6961 1.96875,-4.625 l 0.0312,0 c 0,-1.47346 -0.41688,-2.67396 -1.21875,-3.59375 -0.80421,-0.93013 -1.97524,-1.70972 -3.5,-2.3125 0.47898,-0.18393 0.98969,-0.48636 1.46875,-0.9375 0.47906,-0.44066 0.86234,-1.02619 1.1875,-1.71875 0.32289,-0.69301 0.5,-1.45591 0.5,-2.28125 0,-0.75291 -0.1922,-1.454 -0.5,-2.09375 -0.31648,-0.635 -0.76499,-1.18398 -1.40625,-1.65625 -0.63304,-0.46201 -1.48547,-0.82216 -2.53125,-1.09375 -1.04563,-0.27385 -2.25552,-0.40625 -3.65625,-0.40625 l -10.875,0 z m 24.84375,0 0,22.46875 6.78125,0 0,-8.71875 0.78125,0 c 0.78068,0 1.41437,0.0972 1.90625,0.28125 0.49384,0.18996 0.97568,0.60981 1.5,1.28125 0.51542,0.67777 1.09365,1.73773 1.75,3.1875 l 1.78125,3.96875 7.25,0 -2.25,-4.875 c -0.8104,-1.75395 -1.4675,-2.92513 -1.9375,-3.5 -0.47265,-0.58181 -1.05851,-1.0813 -1.78125,-1.5 0.60512,-0.32546 1.13991,-0.64693 1.625,-1 0.48773,-0.36122 0.97246,-0.9297 1.40625,-1.71875 0.43606,-0.78068 0.65625,-1.73929 0.65625,-2.875 0,-0.97298 -0.25768,-2.01168 -0.78125,-3.09375 -0.52387,-1.08441 -1.37572,-2.02245 -2.5625,-2.78125 -1.19327,-0.75321 -2.73108,-1.125 -4.59375,-1.125 l -11.53125,0 z m 32.09375,0 -9.9375,22.46875 6.9375,0 1.875,-4.5625 9.75,0 1.8125,4.5625 6.9375,0 -9.90625,-22.46875 -7.46875,0 z m 15.375,0 0,5.46875 8.21875,0 0,17 6.78125,0 0,-17 8.21875,0 0,-5.46875 -23.21875,0 z m 27.15625,0 0,22.46875 6.78125,0 0,-22.46875 -6.78125,0 z m 32.78125,0 0,22.46875 17.0625,0 0,-5.4375 -10.3125,0 0,-17.03125 -6.75,0 z m 27.78125,0 -9.9375,22.46875 6.9375,0 1.84375,-4.5625 9.78125,0 1.8125,4.5625 6.9375,0 -9.90625,-22.46875 -7.46875,0 z m 15.40625,0 9.9375,22.75 4.46875,0 10.125,-22.75 -7.0625,0 -5.28125,12.96875 -5.125,-12.96875 -7.0625,0 z m 24.96875,0 8.96875,12.3125 0,10.15625 6.78125,0 0,-10.28125 8.78125,-12.1875 -7.1875,0 -5.15625,7.0625 -5.15625,-7.0625 -7.03125,0 z m -193.625,3.78125 1.4375,0 c 1.51842,0 2.62931,0.17818 3.34375,0.53125 0.71398,0.36167 1.0625,1.08044 1.0625,2.15625 0,1.07588 -0.33869,1.76363 -1.03125,2.125 -0.68434,0.35231 -1.79741,0.53125 -3.34375,0.53125 l -1.46875,0 0,-5.34375 z m -208.4375,0.53125 1.4375,0 c 1.53117,0 2.63654,0.21233 3.3125,0.625 0.6863,0.41252 1.03125,1.11696 1.03125,2.15625 0,1.03069 -0.30347,1.73238 -0.90625,2.09375 -0.61817,0.36665 -1.74675,0.53125 -3.40625,0.53125 l -1.46875,0 0,-5.40625 z m 233.28125,0 1.4375,0 c 1.53336,0 2.63428,0.21233 3.3125,0.625 0.68637,0.41252 1.03125,1.11696 1.03125,2.15625 0,1.03069 -0.28612,1.73238 -0.90625,2.09375 -0.60316,0.36665 -1.74675,0.53125 -3.40625,0.53125 l -1.46875,0 0,-5.40625 z m -299.125,1.46875 3.3125,8.1875 -6.625,0 3.3125,-8.1875 z m 107.40625,0 3.28125,8.1875 -6.59375,0 3.3125,-8.1875 z m 133.65625,0 3.28125,8.1875 -6.59375,0 3.3125,-8.1875 z m 87.15625,0 3.28125,8.1875 -6.625,0 3.34375,-8.1875 z m 103.09375,0 3.28125,8.1875 -6.625,0 3.34375,-8.1875 z m -157.03125,7.125 2.75,0 c 2.79076,0 4.21875,0.97531 4.21875,2.90625 0,1.92264 -1.42799,2.875 -4.21875,2.875 l -2.75,0 0,-5.78125 z"
       id="path396"
       style="fill:#bf222b;fill-opacity:1;fill-rule:nonzero;stroke:none" />
  </g>
</svg>
